<svg xmlns="http://www.w3.org/2000/svg" width="80" height="80" viewBox="0 0 80 80" fill="none"><g clip-path="url(#clip0_9_376)"><path d="M68 66.667C70.2091 66.667 72 68.4579 72 70.667C72 72.8761 70.2091 74.667 68 74.667C65.7908 74.667 64 72.8761 64 70.667C64 68.4579 65.7908 66.667 68 66.667ZM68 72.0003C68.7364 72.0003 69.3333 71.4034 69.3333 70.667C69.3333 69.9306 68.7364 69.3337 68 69.3337C67.2636 69.3337 66.6666 69.9306 66.6666 70.667C66.6666 71.4034 67.2636 72.0003 68 72.0003Z" fill="#C15837"></path><path d="M68 38.667C70.2091 38.667 72 40.4579 72 42.667C72 44.8761 70.2091 46.667 68 46.667C65.7908 46.667 64 44.8761 64 42.667C64 40.4579 65.7908 38.667 68 38.667ZM68 44.0003C68.7364 44.0003 69.3333 43.4034 69.3333 42.667C69.3333 41.9306 68.7364 41.3337 68 41.3337C67.2636 41.3337 66.6666 41.9306 66.6666 42.667C66.6666 43.4034 67.2636 44.0003 68 44.0003Z" fill="#C15837"></path><path d="M68 10.667C70.2091 10.667 72 12.4579 72 14.667C72 16.8761 70.2091 18.667 68 18.667C65.7908 18.667 64 16.8761 64 14.667C64 12.4579 65.7908 10.667 68 10.667ZM68 16.0003C68.7364 16.0003 69.3333 15.4034 69.3333 14.667C69.3333 13.9306 68.7364 13.3337 68 13.3337C67.2636 13.3337 66.6666 13.9306 66.6666 14.667C66.6666 15.4034 67.2636 16.0003 68 16.0003Z" fill="#C15837"></path><path d="M52 66.6669H56.0787C56.7862 60.3383 62.3139 55.6645 68.6721 56.0188C75.0302 56.3731 80.0043 61.6322 80.0043 68.0002C80.0043 74.3682 75.0302 79.6273 68.6721 79.9816C62.3139 80.3359 56.7862 75.6621 56.0787 69.3335H52C49.7908 69.3335 48 67.5427 48 65.3335V41.3335H44V58.6669C44 61.6124 41.6122 64.0002 38.6667 64.0002C35.7211 64.0002 33.3333 61.6124 33.3333 58.6669V56.8895L18.4 50.6669H10.6667C5.05954 50.6337 0.435399 46.2648 0.0841216 40.6686C-0.267156 35.0724 3.77437 30.1596 9.33332 29.4255V21.3335C9.33332 18.388 11.7211 16.0002 14.6667 16.0002C17.6122 16.0002 20 18.388 20 21.3335V28.6669L33.3333 23.1109V21.3335C33.3333 18.388 35.7211 16.0002 38.6667 16.0002C41.6122 16.0002 44 18.388 44 21.3335V38.6669H48V14.6669C48 12.4577 49.7908 10.6669 52 10.6669H56.0787C56.7862 4.33829 62.3139 -0.335533 68.6721 0.0187912C75.0302 0.373116 80.0043 5.63219 80.0043 12.0002C80.0043 18.3682 75.0302 23.6273 68.6721 23.9816C62.3139 24.3359 56.7862 19.6621 56.0787 13.3335H52C51.2636 13.3335 50.6667 13.9305 50.6667 14.6669V38.6669H56.0787C56.7862 32.3383 62.3139 27.6645 68.6721 28.0188C75.0302 28.3731 80.0043 33.6322 80.0043 40.0002C80.0043 46.3682 75.0302 51.6273 68.6721 51.9816C62.3139 52.3359 56.7862 47.6621 56.0787 41.3335H50.6667V65.3335C50.6667 66.0699 51.2636 66.6669 52 66.6669ZM64.5507 59.3335C65.2598 60.5689 66.5755 61.3306 68 61.3306C69.4244 61.3306 70.7401 60.5689 71.4493 59.3335C69.2364 58.4411 66.7636 58.4411 64.5507 59.3335ZM68 77.3335C71.9797 77.337 75.5228 74.8137 76.8208 71.0516C78.1189 67.2896 76.8857 63.1183 73.7506 60.6669C72.5711 62.7302 70.3766 64.0034 68 64.0034C65.6233 64.0034 63.4288 62.7302 62.2493 60.6669C59.1143 63.1183 57.8811 67.2896 59.1791 71.0516C60.4772 74.8137 64.0203 77.337 68 77.3335ZM2.66666 40.0002C2.67107 44.4166 6.25021 47.9958 10.6667 48.0002H17.3333V32.0002H10.6667C6.25021 32.0046 2.67107 35.5837 2.66666 40.0002ZM14.6667 18.6669C13.1939 18.6669 12 19.8608 12 21.3335V29.3335H17.3333V21.3335C17.3333 19.8608 16.1394 18.6669 14.6667 18.6669ZM20 31.5562V48.4442L33.3333 54.0002V26.0002L20 31.5562ZM41.3333 21.3335C41.3333 19.8608 40.1394 18.6669 38.6667 18.6669C37.1939 18.6669 36 19.8608 36 21.3335V58.6669C36 60.1396 37.1939 61.3335 38.6667 61.3335C40.1394 61.3335 41.3333 60.1396 41.3333 58.6669V21.3335ZM64.5507 3.33353C65.2598 4.56889 66.5755 5.33064 68 5.33064C69.4244 5.33064 70.7401 4.56889 71.4493 3.33353C69.2364 2.4411 66.7636 2.4411 64.5507 3.33353ZM68 21.3335C71.9799 21.3375 75.5236 18.8145 76.822 15.0523C78.1204 11.2901 76.8872 7.11847 73.752 4.66687C72.5712 6.72932 70.3765 8.00171 68 8.00171C65.6234 8.00171 63.4288 6.72932 62.248 4.66687C59.1127 7.11847 57.8796 11.2901 59.178 15.0523C60.4764 18.8145 64.02 21.3375 68 21.3335ZM64.5507 31.3335C65.2598 32.5689 66.5755 33.3306 68 33.3306C69.4244 33.3306 70.7401 32.5689 71.4493 31.3335C69.2364 30.4411 66.7636 30.4411 64.5507 31.3335ZM68 49.3335C71.9799 49.3375 75.5236 46.8145 76.822 43.0523C78.1204 39.2901 76.8872 35.1185 73.752 32.6669C72.5712 34.7293 70.3765 36.0017 68 36.0017C65.6234 36.0017 63.4288 34.7293 62.248 32.6669C59.1127 35.1185 57.8796 39.2901 59.178 43.0523C60.4764 46.8145 64.02 49.3375 68 49.3335Z" fill="#C15837"></path></g><defs><clipPath id="clip0_9_376"><rect width="80" height="80" fill="white" transform="matrix(1 0 0 -1 0 80)"></rect></clipPath></defs></svg>