<svg xmlns="http://www.w3.org/2000/svg" width="40" height="40" viewBox="0 0 40 40" fill="none"><circle cx="20" cy="20" r="20" fill="#C15837"></circle><path d="M30.8315 25.8537L27.3719 22.4121L28.0546 21.9187C28.7229 21.4358 29.0004 20.5863 28.7452 19.8048L28.2789 18.3777C28.2297 18.2268 28.2297 18.0673 28.2789 17.9166L28.7452 16.4893C29.0005 15.7079 28.7229 14.8584 28.0546 14.3756L26.8341 13.4934C26.705 13.4002 26.6108 13.2712 26.5616 13.1204L26.0953 11.6931C25.84 10.9118 25.1136 10.3867 24.2876 10.3867H22.7788C22.6193 10.3867 22.4669 10.3375 22.3379 10.2442L21.1173 9.36216C20.449 8.87928 19.551 8.87928 18.8827 9.36216L17.6621 10.2443C17.5331 10.3375 17.3806 10.3868 17.2212 10.3868H15.7124C14.8864 10.3868 14.1599 10.9118 13.9046 11.6932L13.4384 13.1205C13.3891 13.2712 13.2949 13.4002 13.1659 13.4935L11.9453 14.3756C11.277 14.8585 10.9996 15.708 11.2548 16.4893L11.721 17.9166C11.7703 18.0673 11.7703 18.2268 11.721 18.3776L11.2548 19.8049C10.9996 20.5863 11.277 21.4358 11.9453 21.9187L12.6281 22.4121L9.16847 25.8536C9.03119 25.9901 8.97245 26.1864 9.0122 26.3754C9.05196 26.5645 9.18492 26.7207 9.36575 26.7911L12.1444 27.8725L13.2315 30.6362C13.3022 30.8161 13.4594 30.9483 13.6495 30.9879C13.6887 30.996 13.7282 31 13.7674 31C13.9183 31 14.0651 30.9408 14.1742 30.8324L18.4271 26.6027L18.8827 26.932C19.2169 27.1735 19.6084 27.2941 20 27.2941C20.3915 27.2941 20.7831 27.1735 21.1172 26.932L21.5729 26.6027L25.8259 30.8324C25.9349 30.9408 26.0817 31 26.2327 31C26.2718 31 26.3113 30.996 26.3505 30.9879C26.5406 30.9483 26.6977 30.8161 26.7685 30.6362L27.8556 27.8725L30.6343 26.7911C30.8151 26.7208 30.948 26.5645 30.9878 26.3754C31.0276 26.1864 30.9688 25.9901 30.8315 25.8537ZM13.9826 29.4044L13.1242 27.2223C13.0658 27.0737 12.9475 26.9561 12.7981 26.8979L10.6042 26.0442L13.451 23.2122L13.9047 24.601C14.16 25.3825 14.8864 25.9074 15.7125 25.9074H17.2212C17.3034 25.9074 17.3837 25.9208 17.4598 25.9462L13.9826 29.4044ZM19.559 26.0061L18.3384 25.124C18.0115 24.8878 17.6252 24.7629 17.2212 24.7629H15.7125C15.3865 24.7629 15.0998 24.5558 14.9991 24.2474L14.5328 22.8202C14.4136 22.455 14.1893 22.1413 13.8845 21.9079C13.874 21.899 13.8632 21.8907 13.8523 21.8827C13.8489 21.8802 13.8458 21.8773 13.8423 21.8749L12.6217 20.9927C12.358 20.8022 12.2485 20.467 12.3492 20.1586L12.8155 18.7314C12.9404 18.3492 12.9404 17.9452 12.8155 17.563L12.3492 16.1358C12.2485 15.8274 12.358 15.4922 12.6217 15.3015L13.8423 14.4195C14.1693 14.1832 14.4081 13.8563 14.5328 13.4742L14.9991 12.047C15.0998 11.7386 15.3865 11.5314 15.7125 11.5314H17.2212C17.6253 11.5314 18.0116 11.4066 18.3385 11.1703L19.559 10.2883C19.8228 10.0977 20.1773 10.0977 20.4409 10.2883L21.6615 11.1704C21.9884 11.4067 22.3747 11.5315 22.7788 11.5315H24.2876C24.6135 11.5315 24.9002 11.7388 25.0009 12.0471L25.4672 13.4743C25.592 13.8565 25.8307 14.1833 26.1577 14.4196L27.3783 15.3017C27.642 15.4923 27.7515 15.8275 27.6508 16.1359L27.1845 17.5632C27.0597 17.9453 27.0597 18.3494 27.1845 18.7316L27.6508 20.1588C27.7515 20.4672 27.642 20.8024 27.3783 20.993L26.1577 21.875C26.1535 21.8781 26.1496 21.8816 26.1454 21.8847C26.1357 21.8919 26.126 21.8993 26.1167 21.9072C25.8113 22.1406 25.5866 22.4546 25.4672 22.8203L25.0009 24.2475C24.9002 24.5559 24.6135 24.7631 24.2876 24.7631H22.7788C22.3748 24.7631 21.9885 24.888 21.6615 25.1242L20.441 26.0062C20.1771 26.1967 19.8227 26.1966 19.559 26.0061ZM27.2019 26.8979C27.0525 26.9561 26.9343 27.0737 26.8758 27.2223L26.0174 29.4044L22.5401 25.9462C22.6163 25.9208 22.6965 25.9075 22.7787 25.9075H24.2875C25.1135 25.9075 25.84 25.3825 26.0953 24.6011L26.549 23.2122L29.3958 26.0442L27.2019 26.8979Z" fill="white"></path><path d="M22.7258 23C22.848 23 22.9697 22.9603 23.0723 22.8823C23.2538 22.7445 23.3447 22.511 23.3069 22.2799L22.8386 19.4268L24.822 17.4062C24.9827 17.2425 25.0404 16.9977 24.9711 16.7748C24.9018 16.5518 24.7173 16.3893 24.4954 16.3555L21.7543 15.9392L20.5285 13.3434C20.4292 13.1331 20.2244 13 20 13C19.7756 13 19.5707 13.1331 19.4715 13.3434L18.2457 15.9392L15.5047 16.3555C15.2827 16.3892 15.0983 16.5518 15.0289 16.7748C14.9595 16.9977 15.0174 17.2425 15.1781 17.4062L17.1614 19.4268L16.6932 22.2799C16.6553 22.511 16.7461 22.7445 16.9277 22.8823C17.1092 23.0202 17.3498 23.0383 17.5484 22.9293L20 21.5822L22.4516 22.9292C22.5379 22.9766 22.632 23 22.7258 23ZM20.2742 20.3411C20.1883 20.2939 20.0942 20.2703 20 20.2703C19.9058 20.2703 19.8115 20.2939 19.7257 20.3411L18.0569 21.258L18.3757 19.3159C18.4085 19.116 18.3451 18.9121 18.2061 18.7706L16.8561 17.3952L18.7219 17.1118C18.9138 17.0826 19.0798 16.9566 19.1656 16.7748L20 15.0079L20.8343 16.7749C20.9202 16.9567 21.0861 17.0827 21.2781 17.1118L23.1439 17.3952L21.7938 18.7706C21.6549 18.9121 21.5915 19.116 21.6243 19.3159L21.943 21.2581L20.2742 20.3411Z" fill="white"></path></svg>