<svg xmlns="http://www.w3.org/2000/svg" width="40" height="40" viewBox="0 0 40 40" fill="none"><circle cx="20" cy="20" r="20" fill="#C15837"></circle><path d="M15.1875 24.8125V22.2749L14.6901 22.0261C14.5736 21.968 14.5 21.849 14.5 21.7188V20C14.5 19.3125 14.9084 18.7223 15.4931 18.4476C15.3051 18.2122 15.1875 17.9179 15.1875 17.5938C15.1875 16.8354 15.8042 16.2188 16.5625 16.2188C17.3208 16.2188 17.9375 16.8354 17.9375 17.5938C17.9375 17.9179 17.8199 18.2122 17.6319 18.4476C17.8904 18.569 18.1125 18.7525 18.2812 18.9794C18.4504 18.7525 18.6721 18.569 18.9306 18.4476C18.7426 18.2122 18.625 17.9179 18.625 17.5938C18.625 16.8354 19.2417 16.2188 20 16.2188C20.7583 16.2188 21.375 16.8354 21.375 17.5938C21.375 17.9179 21.2574 18.2122 21.0694 18.4476C21.3279 18.569 21.55 18.7525 21.7188 18.9794C21.8879 18.7525 22.1096 18.569 22.3681 18.4476C22.1801 18.2122 22.0625 17.9179 22.0625 17.5938C22.0625 16.8354 22.6792 16.2188 23.4375 16.2188C24.1958 16.2188 24.8125 16.8354 24.8125 17.5938C24.8125 17.9179 24.6949 18.2122 24.5069 18.4476C25.0916 18.7223 25.5 19.3125 25.5 20V21.7188C25.5 21.849 25.4264 21.968 25.3099 22.0264L24.8125 22.2749V24.8125C24.8125 25.0026 24.6585 25.1562 24.4688 25.1562H22.4062C22.2165 25.1562 22.0625 25.0026 22.0625 24.8125V22.2749L21.7188 22.1031L21.375 22.2749V24.8125C21.375 25.0026 21.221 25.1562 21.0312 25.1562H18.9688C18.779 25.1562 18.625 25.0026 18.625 24.8125V22.2749L18.2812 22.1031L17.9375 22.2749V24.8125C17.9375 25.0026 17.7835 25.1562 17.5938 25.1562H15.5312C15.3415 25.1562 15.1875 25.0026 15.1875 24.8125ZM16.5625 16.9062C16.1833 16.9062 15.875 17.2146 15.875 17.5938C15.875 17.9729 16.1833 18.2812 16.5625 18.2812C16.9417 18.2812 17.25 17.9729 17.25 17.5938C17.25 17.2146 16.9417 16.9062 16.5625 16.9062ZM20 16.9062C19.6208 16.9062 19.3125 17.2146 19.3125 17.5938C19.3125 17.9729 19.6208 18.2812 20 18.2812C20.3792 18.2812 20.6875 17.9729 20.6875 17.5938C20.6875 17.2146 20.3792 16.9062 20 16.9062ZM23.4375 16.9062C23.0583 16.9062 22.75 17.2146 22.75 17.5938C22.75 17.9729 23.0583 18.2812 23.4375 18.2812C23.8167 18.2812 24.125 17.9729 24.125 17.5938C24.125 17.2146 23.8167 16.9062 23.4375 16.9062ZM22.5599 21.7548C22.6764 21.8133 22.75 21.9322 22.75 22.0625V24.4688H24.125V22.0625C24.125 21.9322 24.1986 21.8133 24.3151 21.7548L24.8125 21.5063V20C24.8125 19.4314 24.3498 18.9688 23.7812 18.9688H23.0938C22.5252 18.9688 22.0625 19.4314 22.0625 20V21.5063L22.5599 21.7548ZM19.1224 21.7548C19.2389 21.8133 19.3125 21.9322 19.3125 22.0625V24.4688H20.6875V22.0625C20.6875 21.9322 20.7611 21.8133 20.8776 21.7548L21.375 21.5063V20C21.375 19.4314 20.9123 18.9688 20.3438 18.9688H19.6562C19.0877 18.9688 18.625 19.4314 18.625 20V21.5063L19.1224 21.7548ZM15.875 22.0625V24.4688H17.25V22.0625C17.25 21.9322 17.3236 21.8133 17.4401 21.7548L17.9375 21.5063V20C17.9375 19.4314 17.4748 18.9688 16.9062 18.9688H16.2188C15.6502 18.9688 15.1875 19.4314 15.1875 20V21.5063L15.6849 21.7552C15.8014 21.8133 15.875 21.9322 15.875 22.0625Z" fill="white"></path><path d="M13.125 9.6875C15.0204 9.6875 16.5625 11.2296 16.5625 13.125C16.5625 15.0204 15.0204 16.5625 13.125 16.5625C11.2296 16.5625 9.6875 15.0204 9.6875 13.125C9.6875 11.2296 11.2296 9.6875 13.125 9.6875ZM13.125 15.875C14.6413 15.875 15.875 14.6413 15.875 13.125C15.875 11.6087 14.6413 10.375 13.125 10.375C11.6087 10.375 10.375 11.6087 10.375 13.125C10.375 14.6413 11.6087 15.875 13.125 15.875Z" fill="white"></path><path d="M13.0666 12.0762L13.125 12.1315L13.1831 12.0762C13.6389 11.6437 14.3804 11.6437 14.8358 12.0762C15.0627 12.291 15.1875 12.578 15.1875 12.885C15.1875 13.1916 15.0627 13.4793 14.8362 13.6942L13.3615 15.0929C13.2952 15.1558 13.2103 15.1874 13.125 15.1874C13.0398 15.1874 12.9548 15.1558 12.8885 15.0933L11.4138 13.6945C11.1873 13.479 11.0625 13.1913 11.0625 12.885C11.0625 12.578 11.1873 12.291 11.4138 12.0762C11.8696 11.6437 12.6111 11.6437 13.0666 12.0762ZM11.8872 13.1954L13.125 14.37L14.3628 13.1954C14.4512 13.1115 14.5 13.0015 14.5 12.885C14.5 12.7688 14.4512 12.6592 14.3628 12.5753C14.2656 12.4828 14.1377 12.4368 14.0098 12.4368C13.8819 12.4368 13.7541 12.4832 13.6564 12.5753L13.3615 12.8548C13.2288 12.9802 13.0212 12.9802 12.8885 12.8548L12.5936 12.5753C12.399 12.39 12.0821 12.3907 11.8872 12.5753C11.7988 12.6592 11.75 12.7688 11.75 12.885C11.75 13.0015 11.7988 13.1115 11.8872 13.1954Z" fill="white"></path><path d="M12.4375 27.5625C12.2436 27.5625 12.0738 27.4384 12.0161 27.2535C11.7514 26.4103 11.5276 26.1861 10.684 25.9218C10.4994 25.8637 10.375 25.6942 10.375 25.5C10.375 25.3058 10.4994 25.1363 10.684 25.0782C11.5272 24.8139 11.751 24.5897 12.0157 23.7465C12.0738 23.5616 12.2436 23.4375 12.4375 23.4375C12.6314 23.4375 12.8012 23.5616 12.8589 23.7465C13.1236 24.5897 13.3474 24.8139 14.191 25.0782C14.3759 25.1363 14.5 25.3061 14.5 25.5C14.5 25.6939 14.3759 25.8637 14.191 25.9218C13.3478 26.1861 13.1236 26.4103 12.8589 27.2535C12.8012 27.4384 12.6314 27.5625 12.4375 27.5625ZM13.3783 25.5C12.9346 25.2824 12.6551 25.0029 12.4375 24.5592C12.2199 25.0029 11.9401 25.2824 11.4967 25.5C11.9404 25.7176 12.2199 25.9971 12.4375 26.4408C12.6551 25.9971 12.9349 25.7176 13.3783 25.5Z" fill="white"></path><path d="M26.5312 15.5312V14.5H25.5V13.8125H26.5312V12.7812H27.2188V13.8125H28.25V14.5H27.2188V15.5312H26.5312Z" fill="white"></path><path d="M28.9375 13.125H28.25V11.75H26.875V11.0625H28.25V9.6875H28.9375V11.0625H30.3125V11.75H28.9375V13.125Z" fill="white"></path><path d="M19.9897 28.9378L19.9887 29.6253C19.7487 29.625 19.5074 29.616 19.2719 29.5982L19.3232 28.9127C19.5421 28.9292 19.7662 28.9375 19.9897 28.9378Z" fill="white"></path><path d="M21.4218 29.5205C21.1853 29.5556 20.945 29.582 20.7085 29.5992L20.6586 28.9138C20.8783 28.8976 21.101 28.8732 21.321 28.8406L21.4218 29.5205Z" fill="white"></path><path d="M18.6577 28.8372L18.5552 29.5174C18.3194 29.4817 18.0822 29.437 17.8502 29.3837L18.0028 28.7137C18.2187 28.7626 18.4387 28.8042 18.6577 28.8372Z" fill="white"></path><path d="M22.825 29.2035C22.597 29.2733 22.3633 29.3359 22.1306 29.3881L21.9793 28.7175C22.1952 28.6686 22.4118 28.6112 22.6228 28.5463L22.825 29.2035Z" fill="white"></path><path d="M17.3569 28.5405L17.1534 29.1971C16.9255 29.1266 16.6976 29.0465 16.4762 28.9595L16.7279 28.3198C16.9338 28.4006 17.1452 28.4749 17.3569 28.5405Z" fill="white"></path><path d="M24.1652 28.6794C23.95 28.7828 23.7283 28.8791 23.5063 28.9661L23.2557 28.3263C23.4616 28.2456 23.6675 28.1558 23.8675 28.0599L24.1652 28.6794Z" fill="white"></path><path d="M16.1156 28.0516L15.8165 28.6707C15.601 28.5666 15.3875 28.4535 15.1823 28.3342L15.5274 27.7395C15.7175 27.8498 15.9155 27.955 16.1156 28.0516Z" fill="white"></path><path d="M25.412 27.9606C25.215 28.095 25.0105 28.2235 24.8032 28.3425L24.4601 27.7471C24.652 27.6364 24.8421 27.5171 25.0246 27.3927L25.412 27.9606Z" fill="white"></path><path d="M14.9609 27.3823L14.5735 27.9502C14.3773 27.8161 14.183 27.6725 13.996 27.5233L14.4254 26.9863C14.599 27.1249 14.7791 27.2579 14.9609 27.3823Z" fill="white"></path><path d="M26.5367 27.0647C26.3631 27.2256 26.1799 27.383 25.9926 27.5325L25.5639 26.9949C25.7382 26.856 25.9084 26.7096 26.0699 26.5604L26.5367 27.0647Z" fill="white"></path><path d="M27.5161 26.0132C27.3673 26.1984 27.2095 26.381 27.0469 26.5559L26.5436 26.0874C26.6946 25.9252 26.8413 25.7553 26.9795 25.5831L27.5161 26.0132Z" fill="white"></path><path d="M27.7344 24.4822L28.3287 24.8273C28.2095 25.0329 28.0805 25.2367 27.9455 25.434L27.3786 25.0452C27.5037 24.8624 27.6237 24.6726 27.7344 24.4822Z" fill="white"></path><path d="M28.3156 23.2821L28.955 23.5344C28.868 23.7554 28.7708 23.9761 28.6666 24.1913L28.0479 23.8912C28.1448 23.6919 28.2349 23.487 28.3156 23.2821Z" fill="white"></path><path d="M11.0367 23.5138C10.9498 23.2918 10.87 23.0632 10.7999 22.8356L11.4568 22.6328C11.5221 22.8442 11.596 23.056 11.6771 23.2626L11.0367 23.5138Z" fill="white"></path><path d="M28.711 22.0068L29.3809 22.1605C29.3276 22.3929 29.2647 22.6259 29.1943 22.8538L28.5377 22.6503C28.6034 22.4389 28.6615 22.2224 28.711 22.0068Z" fill="white"></path><path d="M11.2839 21.9861L10.6136 22.1384C10.561 21.9071 10.5163 21.6699 10.4809 21.4327L11.1612 21.3313C11.1938 21.5516 11.2351 21.7716 11.2839 21.9861Z" fill="white"></path><path d="M28.9117 20.6875L29.5972 20.7398C29.5793 20.9766 29.5518 21.2165 29.5164 21.4523L28.8364 21.3496C28.8694 21.1306 28.8949 20.9078 28.9117 20.6875Z" fill="white"></path><path d="M10.375 19.9952V19.9625H11.0625V20C11.0625 20.2221 11.0708 20.4458 11.0869 20.6662L10.4015 20.7164C10.3839 20.4799 10.375 20.2386 10.375 19.9952Z" fill="white"></path><path d="M28.9375 20C28.9375 19.7837 28.9299 19.5655 28.9145 19.3516L29.6002 19.3025C29.6167 19.5328 29.625 19.7672 29.625 20.0096L29.4576 20.0141L28.9375 20Z" fill="white"></path><path d="M11.1663 18.6323C11.133 18.8502 11.1072 19.0729 11.09 19.2947L10.4046 19.241C10.4231 19.0028 10.451 18.7625 10.4871 18.5284L11.1663 18.6323Z" fill="white"></path><path d="M29.5219 18.5859L28.8416 18.6866C28.8093 18.468 28.7684 18.2476 28.7199 18.0311L29.3905 17.8805C29.4431 18.1136 29.4871 18.3507 29.5219 18.5859Z" fill="white"></path><path d="M11.4674 17.3322C11.4018 17.5426 11.343 17.7591 11.2928 17.9754L10.6232 17.8196C10.6771 17.5869 10.7404 17.3542 10.8112 17.1273L11.4674 17.3322Z" fill="white"></path><path d="M28.3297 16.7539L28.9701 16.504C29.0568 16.7261 29.1362 16.9547 29.2063 17.1833L28.5487 17.384C28.4841 17.1719 28.4102 16.9598 28.3297 16.7539Z" fill="white"></path><path d="M24.4883 12.2695C24.2982 12.1588 24.1006 12.0532 23.9008 11.9563L24.2013 11.3379C24.4165 11.4427 24.6296 11.5562 24.8345 11.6751L24.4883 12.2695Z" fill="white"></path><path d="M23.289 11.6868C23.0831 11.6056 22.8717 11.531 22.6606 11.465L22.8648 10.8085C23.0924 10.8793 23.3203 10.9597 23.542 11.0474L23.289 11.6868Z" fill="white"></path><path d="M17.394 11.4485L17.194 10.7905C17.4233 10.7211 17.6567 10.6592 17.888 10.6077L18.0386 11.2783C17.8234 11.3268 17.6068 11.3839 17.394 11.4485Z" fill="white"></path><path d="M22.0144 11.2904C21.8002 11.2413 21.5799 11.199 21.3595 11.1653L21.464 10.4857C21.7012 10.5218 21.938 10.5672 22.1687 10.6205L22.0144 11.2904Z" fill="white"></path><path d="M18.6969 11.1567L18.5972 10.4764C18.8313 10.442 19.0712 10.4159 19.3108 10.399L19.3596 11.0845C19.1369 11.1006 18.9141 11.125 18.6969 11.1567Z" fill="white"></path><path d="M20.6947 11.089C20.4727 11.0718 20.2485 11.0632 20.0285 11.0625L20.0306 10.375C20.2674 10.3757 20.5088 10.3853 20.7473 10.4035L20.6947 11.089Z" fill="white"></path><path d="M9.97661 28.3754C10.5276 28.2025 10.6645 28.0657 10.8377 27.514C10.892 27.3414 11.0498 27.2256 11.231 27.2256C11.4121 27.2256 11.5699 27.3414 11.6242 27.5143C11.7971 28.0657 11.9339 28.2029 12.485 28.3754C12.6579 28.4294 12.774 28.5875 12.774 28.7694C12.774 28.9505 12.6579 29.1086 12.4856 29.1626C11.9339 29.3359 11.7971 29.4723 11.6239 30.0244C11.5699 30.1966 11.4118 30.3125 11.231 30.3125C11.0501 30.3125 10.892 30.1966 10.8377 30.0237C10.6648 29.4723 10.528 29.3355 9.97695 29.1626C9.8037 29.1086 9.68752 28.9505 9.68752 28.7694C9.68752 28.5875 9.8037 28.4294 9.97661 28.3754ZM11.231 29.2131C11.3475 29.0279 11.4895 28.8859 11.6751 28.7694C11.4895 28.6525 11.3475 28.5105 11.231 28.3252C11.1144 28.5105 10.9725 28.6525 10.7868 28.769C10.9725 28.8859 11.1141 29.0279 11.231 29.2131Z" fill="white"></path></svg>