<svg xmlns="http://www.w3.org/2000/svg" width="80" height="80" viewBox="0 0 80 80" fill="none"><path d="M67.3558 54.712C67.024 54.712 66.6913 54.7251 66.3596 54.751C63.3932 49.1708 57.5551 45.625 51.1769 45.625C46.7994 45.625 42.6296 47.2716 39.4352 50.2614C36.717 52.8057 34.9201 56.1168 34.2662 59.7305C33.7045 59.6355 33.134 59.5877 32.5582 59.5877C26.9305 59.5877 22.3522 64.1661 22.3522 69.7938C22.3522 75.4214 26.9306 79.9998 32.5582 79.9998H67.3558C74.3278 79.9998 80 74.3278 80 67.3558C80 60.3838 74.3278 54.712 67.3558 54.712ZM67.3558 76.875H32.5582C28.6537 76.875 25.4772 73.6984 25.4772 69.7939C25.4772 65.8894 28.6537 62.7129 32.5582 62.7129C33.412 62.7129 34.2479 62.8641 35.0434 63.1622C35.5051 63.3352 36.0213 63.2801 36.4363 63.0138C36.8512 62.7474 37.116 62.3007 37.1506 61.8088C37.6662 54.4862 43.8271 48.75 51.1769 48.75C56.0892 48.75 60.6082 51.322 63.1468 55.432C62.4835 55.6656 61.8396 55.9538 61.2235 56.296C60.4692 56.7151 60.1973 57.6663 60.6162 58.4207C60.9018 58.9348 61.4343 59.2248 61.9835 59.2248C62.2403 59.2248 62.5006 59.1613 62.7409 59.0279C63.7317 58.4776 64.819 58.112 65.9415 57.9437C66.409 57.8741 66.8832 57.8368 67.3557 57.8368C72.6046 57.8368 76.8749 62.1071 76.8749 67.3558C76.8749 72.6045 72.6047 76.875 67.3558 76.875Z" fill="#C15837"></path><path d="M59.0587 59.8673C58.3481 59.3773 57.3753 59.5559 56.8853 60.2665L56.8808 60.2731C56.3909 60.9834 56.5719 61.953 57.2822 62.443C57.5523 62.6291 57.8603 62.7184 58.1656 62.7184C58.6637 62.7184 59.154 62.481 59.4579 62.0406C59.9476 61.3301 59.769 60.3571 59.0587 59.8673Z" fill="#C15837"></path><path d="M45.0044 9.08698C44.6725 9.08698 44.3397 9.1001 44.008 9.12604C41.0416 3.54576 35.2035 0 28.8253 0C24.4478 0 20.278 1.64655 17.0838 4.63638C14.3652 7.1809 12.5685 10.492 11.9144 14.1057C11.3527 14.0107 10.7824 13.9629 10.2065 13.9629C4.57868 13.9629 0.000427246 18.5413 0.000427246 24.1689C0.000427246 29.7965 4.57884 34.375 10.2066 34.375H45.0044C51.9762 34.375 57.6484 28.703 57.6484 21.731C57.6484 14.759 51.9762 9.08698 45.0044 9.08698ZM45.0042 31.2501H10.2066C6.30211 31.2501 3.12556 28.0736 3.12556 24.1691C3.12541 20.2644 6.30195 17.0879 10.2066 17.0879C11.0605 17.0879 11.8964 17.2391 12.6918 17.5372C13.1532 17.7105 13.6699 17.6554 14.0846 17.389C14.4994 17.1224 14.7644 16.6758 14.7989 16.184C15.3146 8.8612 21.4756 3.12514 28.8253 3.12514C33.7377 3.12514 38.2571 5.69747 40.7955 9.80776C40.1322 10.0413 39.488 10.329 38.8719 10.6712C38.1177 11.0902 37.8458 12.0415 38.2647 12.7959C38.5504 13.3099 39.083 13.5999 39.6321 13.5999C39.8888 13.5999 40.1492 13.5365 40.3896 13.403C41.3695 12.8585 42.4442 12.4948 43.5542 12.3243C44.0331 12.2512 44.5197 12.2121 45.0042 12.2121C50.2531 12.2121 54.5232 16.4824 54.5232 21.7311C54.5232 26.9798 50.2531 31.2501 45.0042 31.2501Z" fill="#C15837"></path><path d="M36.7068 14.2427C35.996 13.7527 35.0235 13.9315 34.5334 14.6419L34.5289 14.6485C34.039 15.3588 34.22 16.3285 34.9303 16.8185C35.2004 17.0046 35.5084 17.0938 35.8137 17.0938C36.3118 17.0938 36.8021 16.8565 37.106 16.416C37.5959 15.7057 37.4171 14.7326 36.7068 14.2427Z" fill="#C15837"></path><path d="M72.7983 8.43799H63.4463C62.5835 8.43799 61.8839 9.13752 61.8839 10.0005C61.8839 10.8634 62.5834 11.563 63.4463 11.563H71.2358V20.7817C71.2358 21.6446 71.9355 22.3442 72.7983 22.3442C73.6611 22.3442 74.3608 21.6446 74.3608 20.7817V10.0005C74.3608 9.13752 73.6611 8.43799 72.7983 8.43799Z" fill="#C15837"></path><path d="M15.1679 68.4374H8.76448V60.293C8.76448 59.43 8.06479 58.7305 7.20199 58.7305C6.33918 58.7305 5.6395 59.43 5.6395 60.293V69.9999C5.6395 70.8629 6.33918 71.5624 7.20199 71.5624H15.1679C16.0307 71.5624 16.7304 70.8629 16.7304 69.9999C16.7304 69.137 16.0308 68.4374 15.1679 68.4374Z" fill="#C15837"></path><path d="M50.8843 52.0835C45.5357 52.0835 41.0518 56.2591 40.6767 61.5895C40.616 62.4503 41.2649 63.1973 42.1256 63.2578C42.1629 63.2605 42.2001 63.2617 42.2368 63.2617C43.0498 63.2617 43.736 62.6323 43.794 61.8089C44.0544 58.1077 47.169 55.2085 50.8843 55.2085C51.7471 55.2085 52.4467 54.509 52.4467 53.646C52.4467 52.783 51.7472 52.0835 50.8843 52.0835Z" fill="#C15837"></path><path d="M28.5419 6.7041C23.3314 6.7041 18.9635 10.7717 18.5977 15.9647C18.5372 16.8254 19.1858 17.5725 20.0468 17.6331C20.084 17.6358 20.1213 17.637 20.1582 17.637C20.971 17.637 21.6572 17.0076 21.7152 16.1842C21.9661 12.6206 24.9649 9.82908 28.5419 9.82908C29.4047 9.82908 30.1044 9.12956 30.1044 8.26659C30.1044 7.40363 29.4047 6.7041 28.5419 6.7041Z" fill="#C15837"></path><path d="M79.5422 32.3504C78.9319 31.7403 77.9428 31.7403 77.3324 32.3504L74.3603 35.3224V27.6562H74.3607C74.3607 26.7933 73.661 26.0938 72.7982 26.0938C71.9354 26.0938 71.2357 26.7933 71.2357 27.6562V35.2937L68.2924 32.3504C67.6821 31.7403 66.693 31.7403 66.0826 32.3504C65.4724 32.9606 65.4724 33.95 66.0826 34.5603L71.7075 40.1852C72.0127 40.4904 72.4125 40.6429 72.8124 40.6429C73.2122 40.6429 73.6121 40.4904 73.9172 40.1852L79.5422 34.5603C80.1523 33.9501 80.1523 32.9607 79.5422 32.3504Z" fill="#C15837"></path><path d="M13.9174 45.4395L8.29244 39.8145C7.68214 39.2044 6.69308 39.2044 6.08261 39.8145L0.457645 45.4395C-0.152508 46.0497 -0.152508 47.039 0.457645 47.6493C1.06795 48.2595 2.05701 48.2595 2.66748 47.6493L5.63949 44.6773V53.8756C5.63949 54.7385 6.33917 55.438 7.20198 55.438C8.06479 55.438 8.76447 54.7385 8.76447 53.8756V44.7061L11.7077 47.6493C12.0129 47.9545 12.4127 48.107 12.8126 48.107C13.2124 48.107 13.6123 47.9545 13.9174 47.6493C14.5276 47.0392 14.5276 46.0498 13.9174 45.4395Z" fill="#C15837"></path><path d="M71.8749 65.7935C71.0121 65.7935 70.3124 66.493 70.3124 67.3559C70.3124 68.9861 68.9862 70.3123 67.3559 70.3123C66.493 70.3123 65.7934 71.0119 65.7934 71.8748C65.7934 72.7378 66.493 73.4373 67.3559 73.4373C70.7093 73.4373 73.4374 70.7092 73.4374 67.3559C73.4374 66.493 72.7379 65.7935 71.8749 65.7935Z" fill="#C15837"></path><path d="M49.6877 20.1685C48.8249 20.1685 48.1252 20.868 48.1252 21.7309C48.1252 23.4519 46.7252 24.8519 45.0043 24.8519C44.1415 24.8519 43.4418 25.5514 43.4418 26.4144C43.4418 27.2773 44.1413 27.9768 45.0043 27.9768C48.4483 27.9768 51.2502 25.175 51.2502 21.7309C51.2502 20.868 50.5505 20.1685 49.6877 20.1685Z" fill="#C15837"></path></svg>