<svg xmlns="http://www.w3.org/2000/svg" width="76" height="76" viewBox="0 0 76 76" fill="none"><g clip-path="url(#clip0_21_1258)"><path d="M67.5356 14.0332C67.5356 19.1497 63.388 23.2972 58.2722 23.2972C53.1557 23.2972 49.0081 19.1497 49.0081 14.0332C49.0081 8.91733 53.1557 4.76978 58.2722 4.76978C63.388 4.76978 67.5356 8.91733 67.5356 14.0332Z" fill="white"></path><path d="M42.238 26.0328L37.8411 19.4395V8.18958C37.8411 3.7005 34.2206 0 29.6533 0H8.18958C3.64542 0 0 3.67847 0 8.18958V21.3054C0 25.8061 3.63208 29.4944 8.18958 29.4944H40.3854C42.1591 29.4944 43.2237 27.5114 42.238 26.0328ZM18.8585 21.1477H11.8286C10.6295 21.1477 9.59799 20.2252 9.54233 19.0273C9.48376 17.7481 10.5008 16.6946 11.7666 16.6946H18.9217C20.1852 16.6946 21.2045 17.7481 21.1454 19.0267C21.0903 20.2252 20.0582 21.1477 18.8585 21.1477ZM26.0763 12.7998H11.8298C10.6313 12.7998 9.60031 11.8796 9.54291 10.6829C9.48145 9.40375 10.4996 8.34671 11.7666 8.34671H26.0131C27.2128 8.34671 28.2449 9.26923 28.3 10.4677C28.3591 11.7463 27.3398 12.7998 26.0763 12.7998Z" fill="white"></path><path d="M17.2906 55.2413C7.70078 55.2744 0 63.1914 0 72.7813V73.2695C0 74.7777 1.22229 76 2.73044 76H31.9732C33.4814 76 34.7036 74.7777 34.7036 73.2695V72.5928C34.7036 62.9891 26.902 55.2077 17.2906 55.2413Z" fill="white"></path><path d="M28.2785 44.3151C28.2785 50.3494 23.387 55.2415 17.3521 55.2415C11.3178 55.2415 6.42572 50.3494 6.42572 44.3151C6.42572 38.2807 11.3178 33.3887 17.3521 33.3887C23.387 33.3887 28.2785 38.2807 28.2785 44.3151Z" fill="white"></path><path d="M72.3233 35.7734H44.2193C45.0479 28.7481 51.0225 23.2971 58.2722 23.2971C65.5201 23.2971 71.4947 28.7481 72.3233 35.7734Z" fill="white"></path><path d="M73.7734 40.375C75.0033 40.375 76 41.3717 76 42.6016V69.0043C76 70.2689 74.9447 71.2889 73.665 71.228C72.4688 71.1711 71.5469 70.1396 71.5469 68.9405V66.46H38.2777C36.7812 61.3656 33.4727 57.0371 29.0984 54.2301C31.3632 51.5507 32.7322 48.0891 32.7322 44.3144C32.7322 42.9535 32.5536 41.6338 32.2196 40.375H73.7734Z" fill="white"></path></g><defs><clipPath id="clip0_21_1258"><rect width="76" height="76" fill="white"></rect></clipPath></defs></svg>