<svg xmlns="http://www.w3.org/2000/svg" width="80" height="80" viewBox="0 0 80 80" fill="none"><path d="M77.9844 29.0943L73.9586 25.6153C73.4592 25.1834 72.7041 25.2385 72.2723 25.7382C71.8406 26.2378 71.8955 26.9928 72.3953 27.4245L76.4208 30.9035C77.8558 32.1437 78.0142 34.3201 76.7742 35.7551L50.6262 66.0107C50.1945 66.5103 50.2494 67.2653 50.7491 67.6971C50.9752 67.8926 51.2534 67.9882 51.5303 67.9882C51.8658 67.9882 52.1991 67.8479 52.4355 67.5745L78.5833 37.3185C80.6856 34.886 80.4169 31.1965 77.9844 29.0943Z" fill="#C15837"></path><path d="M70.897 22.969L52.2745 6.87509C51.0961 5.85666 49.5914 5.35869 48.0383 5.47119C46.4848 5.58416 45.0686 6.29556 44.0502 7.47384L42.2758 9.52697C41.8441 10.0267 41.8989 10.7817 42.3986 11.2134C42.8984 11.6454 43.6533 11.5901 44.085 11.0906L45.8594 9.03744C46.4602 8.34244 47.2956 7.92275 48.212 7.85603C49.1284 7.78869 50.0158 8.08337 50.7109 8.68416L69.3334 24.7781C69.5595 24.9735 69.8378 25.0692 70.1147 25.0692C70.4502 25.0692 70.7834 24.9288 71.0198 24.6554C71.4514 24.1557 71.3966 23.4007 70.897 22.969Z" fill="#C15837"></path><path d="M59.5467 18.7424L27.3298 7.93648C24.2812 6.91398 20.9698 8.56226 19.9475 11.6104L19.5225 12.8774C19.3125 13.5034 19.6498 14.1812 20.2759 14.3912C20.902 14.6012 21.5795 14.264 21.7897 13.6377L22.2147 12.3707C22.8178 10.5724 24.7711 9.60008 26.5695 10.2034L58.7866 21.0091C60.5848 21.6124 61.557 23.5659 60.9539 25.364L45.9644 70.0546C45.7544 70.6805 46.0917 71.3582 46.7178 71.5684C46.8439 71.6105 46.972 71.6307 47.0981 71.6307C47.5978 71.6307 48.0637 71.3149 48.2316 70.8151L63.2211 26.1246C64.2433 23.0766 62.5952 19.7648 59.5467 18.7424Z" fill="#C15837"></path><path d="M39.8117 15.7451H5.83094C2.61578 15.7451 0 18.3607 0 21.5759V68.7133C0 71.9284 2.61578 74.5442 5.83094 74.5442H39.8119C43.027 74.5442 45.6428 71.9284 45.6428 68.7133V21.5759C45.6427 18.3607 43.027 15.7451 39.8117 15.7451ZM43.2514 68.7133C43.2514 70.61 41.7083 72.1529 39.8117 72.1529H5.83094C3.93422 72.1529 2.39125 70.6098 2.39125 68.7133V21.5759C2.39125 19.6792 3.93438 18.1362 5.83094 18.1362H39.8119C41.7086 18.1362 43.2516 19.6793 43.2516 21.5759V68.7133H43.2514Z" fill="#C15837"></path><path d="M40.4341 48.7437H5.20875C4.54844 48.7437 4.01313 49.279 4.01313 49.9393C4.01313 50.5996 4.54844 51.1349 5.20875 51.1349H40.4342C41.0945 51.1349 41.6298 50.5996 41.6298 49.9393C41.6297 49.279 41.0944 48.7437 40.4341 48.7437Z" fill="#C15837"></path><path d="M34.8603 55.5811H20.055C19.3947 55.5811 18.8594 56.1164 18.8594 56.7767C18.8594 57.437 19.3947 57.9723 20.055 57.9723H34.8603C35.5206 57.9723 36.0559 57.437 36.0559 56.7767C36.0559 56.1164 35.5206 55.5811 34.8603 55.5811Z" fill="#C15837"></path><path d="M16.0695 55.5811H10.7822C10.1219 55.5811 9.58656 56.1164 9.58656 56.7767C9.58656 57.437 10.1219 57.9723 10.7822 57.9723H16.0695C16.7298 57.9723 17.2652 57.437 17.2652 56.7767C17.2652 56.1164 16.7298 55.5811 16.0695 55.5811Z" fill="#C15837"></path><path d="M34.8603 60.1514H10.7822C10.1219 60.1514 9.58656 60.6867 9.58656 61.347C9.58656 62.0073 10.1219 62.5426 10.7822 62.5426H34.8603C35.5206 62.5426 36.0559 62.0073 36.0559 61.347C36.0559 60.6865 35.5206 60.1514 34.8603 60.1514Z" fill="#C15837"></path><path d="M34.8603 64.7217H10.7822C10.1219 64.7217 9.58656 65.257 9.58656 65.9173C9.58656 66.5776 10.1219 67.1129 10.7822 67.1129H34.8603C35.5206 67.1129 36.0559 66.5776 36.0559 65.9173C36.0559 65.257 35.5206 64.7217 34.8603 64.7217Z" fill="#C15837"></path><path d="M35.9619 29.6177C35.8213 29.1848 35.4472 28.8694 34.9969 28.8041L27.3245 27.6892L23.8934 20.7369C23.6919 20.3287 23.2764 20.0703 22.8212 20.0703C22.3663 20.0703 21.9506 20.3287 21.7491 20.7369L18.3178 27.6892L10.6455 28.8041C10.1952 28.8694 9.82094 29.1848 9.68047 29.6177C9.53984 30.0505 9.65719 30.5255 9.98297 30.8431L15.5348 36.2547L14.2242 43.8963C14.1473 44.3447 14.3317 44.798 14.6998 45.0655C14.9081 45.2167 15.1548 45.2938 15.4027 45.2938C15.5928 45.2938 15.7839 45.2483 15.9589 45.1566L22.8212 41.5486L29.6836 45.1566C30.0864 45.3683 30.5745 45.333 30.9427 45.0655C31.3109 44.798 31.4952 44.3447 31.4183 43.8963L30.1077 36.2547L35.6594 30.8431C35.9852 30.5255 36.1025 30.0505 35.9619 29.6177ZM27.9886 34.9812C27.7067 35.2559 27.5781 35.6517 27.6447 36.0395L28.652 41.9128L23.3775 39.1397C23.0291 38.9567 22.613 38.9567 22.2648 39.1397L16.9903 41.9128L17.9977 36.0395C18.0641 35.6517 17.9356 35.2559 17.6538 34.9812L13.3867 30.8219L19.2838 29.9648C19.6731 29.9083 20.0097 29.6637 20.1839 29.3108L22.8211 23.967L25.4583 29.3108C25.6323 29.6636 25.9691 29.9083 26.3584 29.9648L32.2556 30.8219L27.9886 34.9812Z" fill="#C15837"></path></svg>