<svg xmlns="http://www.w3.org/2000/svg" width="76" height="76" viewBox="0 0 76 76" fill="none"><g clip-path="url(#clip0_21_1302)"><path d="M20.6493 51.2961C19.5945 50.1985 17.7477 50.0621 16.5422 50.9775L16.5105 50.957L13.7825 53.685C13.1843 54.2814 12.8563 55.077 12.8563 55.9231C12.8204 57.6268 14.3204 59.1235 16.0223 59.0891C17.0131 59.1051 17.8955 58.6098 18.5417 57.8815L20.6493 55.774C21.0909 55.3323 21.3872 54.7826 21.5102 54.1844C21.731 53.1499 21.4045 52.0404 20.6493 51.2961Z" fill="white"></path><path d="M13.0611 42.0215C11.8262 40.7864 9.81964 40.7877 8.58324 42.0215C8.2959 42.3104 6.52413 44.081 6.19616 44.4105C3.34825 47.5012 7.57977 51.7344 10.6722 48.8883C10.6722 48.8883 12.7439 46.8164 13.0611 46.4994C14.2968 45.2658 14.2968 43.257 13.0611 42.0215Z" fill="white"></path><path d="M27.1229 58.5169C26.2769 58.5169 25.4812 58.8467 24.883 59.4449L22.4941 61.8338C22.4829 61.845 22.4717 61.8562 22.4605 61.8692C21.2634 63.0519 21.2813 65.1463 22.4941 66.3117C23.7295 67.5453 25.7383 67.5453 26.9719 66.3117L29.3627 63.9209C31.3428 61.9458 29.9195 58.5062 27.1229 58.5169Z" fill="white"></path><path d="M48.3699 23.374C43.4821 26.4562 36.9283 25.8711 32.6741 21.6168L27.1359 16.0805L34.0475 9.16898C26.624 0.838432 13.5706 0.309958 5.66881 8.26539C-2.27582 16.156 -1.76654 29.194 6.54649 36.6196C12.6005 33.236 20.0451 37.9621 19.5552 44.8561C23.5639 45.2893 26.9576 48.9227 27.1413 52.9323C30.9109 52.8516 34.6553 55.6747 35.5734 59.3984C38.7117 58.5573 42.2289 59.5993 44.3782 62.0855L44.4416 62.011C47.5575 63.8817 50.8539 60.0393 48.5039 57.2406L48.5095 57.2331C48.461 57.1865 35.9256 44.6511 35.9256 44.6511C36.9106 43.6661 38.8932 41.6835 39.878 40.6987L52.3184 53.1391C55.4089 55.9864 59.643 51.7521 56.7944 48.6612L44.3559 36.2208C45.3409 35.2358 47.3234 33.2533 48.3082 32.2685C51.1042 35.0642 57.8871 41.8475 60.7486 44.7089C61.9267 45.9361 64.0482 45.9356 65.2265 44.7089C66.4601 43.4734 66.4601 41.4646 65.2265 40.231L48.3699 23.374Z" fill="white"></path><path d="M70.3307 8.26524C62.7558 0.692185 50.4309 0.692185 42.856 8.26524C41.3831 9.73904 36.4336 14.6897 35.0425 16.0805L36.6265 17.6645C39.3807 20.4187 43.8604 20.4187 46.6127 17.6645L48.5898 15.6874C49.641 16.7501 68.9368 36.0129 69.4791 36.5934C77.7722 29.1649 78.2636 16.1456 70.3307 8.26524Z" fill="white"></path><path d="M40.0403 65.6278C38.8046 64.394 36.7973 64.3925 35.5624 65.6278L33.1735 68.0167C31.9442 69.1952 31.9447 71.316 33.1735 72.4946C34.3536 73.7211 36.472 73.7204 37.6514 72.4946L40.0403 70.1057C41.267 68.9287 41.267 66.802 40.0403 65.6278Z" fill="white"></path></g><defs><clipPath id="clip0_21_1302"><rect width="76" height="76" fill="white"></rect></clipPath></defs></svg>