<svg xmlns="http://www.w3.org/2000/svg" width="79" height="67" viewBox="0 0 79 67" fill="none"><path d="M78.7667 57.5593C78.5455 57.2628 78.1972 57.088 77.8271 57.088H72.0681C74.4392 55.1623 75.958 52.2252 75.958 48.9398V34.7818C75.958 28.9951 71.2496 24.2866 65.4628 24.2866H62.0605C63.2563 23.5772 64.3719 22.7153 65.3773 21.7094C68.9164 18.1702 70.686 13.2761 70.231 8.28195C70.1797 7.7178 69.7325 7.27119 69.169 7.21996C65.3592 6.87339 61.6386 7.79917 58.4966 9.8436C57.7173 6.19473 55.7385 2.88397 52.8075 0.443552C52.3729 0.081316 51.7413 0.081316 51.3061 0.443552C48.3751 2.88397 46.3969 6.19533 45.617 9.8436C42.4738 7.79917 38.752 6.87279 34.9446 7.21996C34.3811 7.27119 33.9339 7.7178 33.8826 8.28195C33.4282 13.2755 35.1972 18.1696 38.7363 21.7088C39.7423 22.7147 40.8573 23.5772 42.0525 24.2866H39.1341C35.8638 24.2866 32.8875 25.7886 30.9444 28.2122V22.9118C30.9444 22.2639 30.4194 21.7389 29.7709 21.7389H25.823V16.3614C25.823 14.4683 24.2831 12.9277 22.3893 12.9277H20.4847V7.31699C20.4847 5.42987 18.9496 3.89474 17.0625 3.89474H12.5276C10.6405 3.89474 9.10472 5.42987 9.10472 7.31699V12.9277H7.20132C5.30696 12.9277 3.7658 14.4683 3.7658 16.362V22.0499C3.7658 22.6979 4.29138 23.2228 4.9393 23.2228C5.58723 23.2228 6.1122 22.6979 6.1122 22.0499V16.362C6.1122 15.7623 6.60101 15.2747 7.20132 15.2747H22.3899C22.989 15.2747 23.4766 15.7623 23.4766 16.362V21.7389H19.4167C18.7682 21.7389 18.2432 22.2639 18.2432 22.9118V31.6115C13.1851 34.0447 9.95938 39.1377 9.95938 44.7997C9.95938 49.9445 12.6282 54.4776 16.6544 57.088H7.19529C6.598 57.0844 6.1128 56.5986 6.1128 56.0013V26.7433C6.1128 26.0954 5.58723 25.5698 4.9393 25.5698C4.29138 25.5698 3.76641 26.0954 3.76641 26.7433V56.0013C3.76641 56.381 3.82909 56.7462 3.94361 57.088H1.1735C0.803426 57.088 0.45445 57.2628 0.233251 57.5593C0.0114489 57.8558 -0.0566588 58.2398 0.0482149 58.5948C0.764851 61.0105 2.21078 63.0844 4.2299 64.5919C6.24902 66.0993 8.64846 66.8961 11.1678 66.8961H56.0827C56.7306 66.8961 57.2556 66.3705 57.2556 65.7226C57.2556 65.0746 56.7306 64.5491 56.0827 64.5491H11.1684C7.64914 64.5491 4.44387 62.5101 2.89547 59.4344H65.4628H65.4749H76.1045C74.5567 62.5101 71.3514 64.5491 67.8321 64.5491H60.7761C60.1282 64.5491 59.6026 65.0746 59.6026 65.7226C59.6026 66.3705 60.1282 66.8961 60.7761 66.8961H67.8321C70.3515 66.8961 72.751 66.0993 74.7701 64.5919C76.7892 63.0844 78.2351 61.0105 78.9518 58.5948C79.0566 58.2398 78.9885 57.8558 78.7667 57.5593ZM58.8456 12.4703C61.4632 10.4596 64.6462 9.42351 67.9509 9.49945C68.0389 13.4437 66.5254 17.2426 63.718 20.0501C61.3252 22.4435 58.2109 23.8955 54.9013 24.2173C57.4491 21.2055 58.8697 17.3831 58.8697 13.3695C58.8697 13.0688 58.8612 12.7692 58.8456 12.4703ZM52.0571 2.91652C54.9074 5.64263 56.5233 9.3988 56.5233 13.3695C56.5233 17.3409 54.9074 21.097 52.0571 23.8225C49.2068 21.097 47.5909 17.3409 47.5909 13.3695C47.5909 9.3988 49.2068 5.64263 52.0571 2.91652ZM36.1627 9.49945C39.4717 9.4211 42.651 10.4596 45.2686 12.4709C45.253 12.7692 45.2445 13.0688 45.2445 13.3701C45.2445 17.3831 46.6651 21.2061 49.2135 24.2179C45.9039 23.8961 42.7902 22.4447 40.3956 20.0501C37.5882 17.2426 36.0753 13.4437 36.1627 9.49945ZM18.1383 12.9277H11.4511V7.31699C11.4511 6.72392 11.9339 6.24113 12.5276 6.24113H17.0625C17.6561 6.24113 18.1383 6.72392 18.1383 7.31699V12.9277ZM20.5896 24.0853H28.598V27.2906H20.5896V24.0853ZM12.3058 44.7997C12.3058 39.823 15.2742 35.3695 19.8681 33.4534C20.3051 33.2714 20.5896 32.8441 20.5896 32.3709V29.637H28.598V32.3709C28.598 32.8441 28.8824 33.2714 29.3194 33.4534C33.9134 35.3695 36.8818 39.823 36.8818 44.7997C36.8818 51.5755 31.3699 57.088 24.5941 57.088C17.8177 57.088 12.3058 51.5755 12.3058 44.7997ZM65.4749 57.088H32.5337C35.2219 55.3449 37.3049 52.7442 38.3922 49.6763H60.2192C63.5179 49.6763 66.2012 46.993 66.2012 43.6943V42.2411C66.2012 38.9424 63.5179 36.2591 60.2192 36.2591H39.9858C39.3373 36.2591 38.8123 36.7841 38.8123 37.432C38.8123 38.0799 39.3373 38.6055 39.9858 38.6055H60.2192C62.2238 38.6055 63.8548 40.2365 63.8548 42.2411V43.6943C63.8548 45.6989 62.2238 47.3299 60.2192 47.3299H39.0094C39.1528 46.5078 39.2288 45.6628 39.2288 44.7997C39.2288 39.3529 36.2417 34.4329 31.5115 31.9014C32.6928 28.7582 35.7053 26.6336 39.1347 26.6336H50.6166H50.6202H65.4622C69.9555 26.6336 73.611 30.2891 73.611 34.7818V48.9398C73.6116 53.4288 69.9622 57.0813 65.4749 57.088Z" fill="#C15837"></path></svg>