<svg xmlns="http://www.w3.org/2000/svg" width="40" height="40" viewBox="0 0 40 40" fill="none"><circle cx="20" cy="20" r="20" fill="#C15837"></circle><path d="M27.4379 15.694C27.4379 15.6425 27.4508 15.5908 27.4508 15.5393C27.5926 13.103 26.8964 11.3111 25.4785 10.4991C23.9961 9.63539 21.998 10.0479 20 11.4014C18.002 10.0479 16.0168 9.63539 14.5215 10.4991C12.8328 11.4787 12.3688 13.4768 12.5621 15.694C10.3836 16.751 9 18.2721 9 19.9866C9 21.701 10.3836 23.2221 12.5621 24.2791C12.3688 26.4964 12.8328 28.4944 14.5215 29.4741C16.1973 30.4409 18.1566 29.8479 20 28.5588C21.8434 29.8479 23.8027 30.4409 25.4785 29.4741C27.1672 28.4944 27.6312 26.4964 27.4379 24.2791C29.6164 23.2222 31 21.701 31 19.9866C31 18.2721 29.6164 16.751 27.4379 15.694ZM24.834 11.6077C25.7363 12.1361 26.2262 13.4252 26.1746 15.1655C25.2723 14.8432 24.2797 14.5983 23.2097 14.4307C22.5266 13.5799 21.8047 12.8451 21.0828 12.2264C22.4105 11.3498 23.7511 10.976 24.834 11.6077ZM25.6332 18.2463C25.4398 17.8338 25.2336 17.4471 25.0274 17.0862C24.8082 16.6994 24.5762 16.3256 24.3312 15.9776C24.9372 16.1194 25.5172 16.2869 26.0457 16.4932C25.9555 17.0603 25.8266 17.6534 25.6332 18.2463ZM26.0328 23.4799C25.5043 23.6862 24.9372 23.8537 24.3312 23.9955C24.5891 23.6218 24.8211 23.2478 25.0274 22.8869C25.2465 22.5131 25.4398 22.1392 25.6203 21.7655C25.7879 22.3326 25.9296 22.9127 26.0328 23.4799ZM20 24.4983C19.1364 24.4983 18.2855 24.4467 17.4863 24.3307C16.9965 23.6862 16.5195 22.99 16.0941 22.2424C15.7332 21.6236 15.3594 20.8502 15.0113 19.9994C15.3465 19.1357 15.7332 18.3623 16.0941 17.7307C16.468 17.0733 16.9707 16.3514 17.525 15.6295C18.3113 15.5264 19.1492 15.4748 20 15.4748C20.8507 15.4748 21.6886 15.5264 22.4749 15.6295C23.0421 16.3643 23.5319 17.0862 23.9058 17.7307C24.2796 18.3623 24.6534 19.1486 25.0015 20.0123C24.705 20.76 24.3311 21.5076 23.9058 22.2424C23.4804 22.99 23.0035 23.6862 22.5136 24.3307C21.7145 24.4467 20.8636 24.4983 20 24.4983ZM21.302 25.7486C20.8765 26.1998 20.4383 26.6123 20 26.9474C19.5617 26.6124 19.1234 26.1998 18.698 25.7486C19.1235 25.7744 19.5617 25.7873 20 25.7873C20.4383 25.7873 20.8766 25.7744 21.302 25.7486ZM13.9672 16.4932C14.4957 16.2869 15.0628 16.1194 15.6687 15.9776C15.4238 16.3256 15.1918 16.6994 14.9726 17.0862C14.7664 17.4342 14.573 17.808 14.3797 18.2076C14.2121 17.6405 14.0704 17.0603 13.9672 16.4932ZM14.3926 21.7784C14.573 22.178 14.7793 22.5389 14.9727 22.8869C15.1789 23.2478 15.411 23.6217 15.6688 23.9955C15.0629 23.8537 14.5086 23.6862 13.9801 23.4928C14.0832 22.9256 14.225 22.3455 14.3926 21.7784ZM18.7497 14.2244C19.1493 13.7991 19.5746 13.3994 20 13.0385C20.4383 13.3995 20.8507 13.7991 21.2503 14.2244C20.8379 14.1987 20.4254 14.1858 20 14.1858C19.5746 14.1858 19.1621 14.1987 18.7497 14.2244ZM15.166 11.6077C16.2617 10.976 17.6023 11.3627 18.93 12.2264C18.1953 12.8451 17.4734 13.5799 16.7902 14.4307C15.7203 14.5983 14.7148 14.856 13.8125 15.1655C13.7223 13.5799 14.0704 12.2393 15.166 11.6077ZM10.2891 19.9866C10.2891 18.8651 11.2601 17.8338 12.7555 17.0346C12.9489 18.0272 13.2453 19.0326 13.6191 19.9866C13.2582 20.9405 12.9617 21.9459 12.7684 22.9385C11.2601 22.1393 10.2891 21.108 10.2891 19.9866ZM15.166 28.3655C14.0704 27.7338 13.7352 26.3803 13.8254 24.8076C14.7406 25.1299 15.759 25.3877 16.8418 25.5424C17.4734 26.3287 18.1953 27.0764 18.943 27.7209C17.4992 28.6361 16.1328 28.9198 15.166 28.3655ZM24.834 28.3655C23.6943 29.0228 22.1594 28.4306 21.057 27.7209C21.8047 27.0764 22.5266 26.3287 23.1582 25.5424C24.2539 25.3877 25.2723 25.1299 26.1875 24.8076C26.2777 26.3932 25.9296 27.7338 24.834 28.3655ZM27.2445 22.9385C27.0511 21.9588 26.7547 20.9662 26.4066 20.0252C26.7934 19.0069 27.0898 18.0014 27.2445 17.0346C28.7399 17.8338 29.7109 18.8651 29.7109 19.9866C29.7109 21.108 28.7399 22.1393 27.2445 22.9385Z" fill="white"></path><path d="M20 17.8983C19.2394 17.228 18.0664 17.2538 17.3446 17.9757C16.584 18.7233 16.584 19.9608 17.3446 20.7085L20 23.3639L22.6555 20.7085C23.4161 19.9608 23.4161 18.7233 22.6555 17.9757C21.9336 17.2538 20.7606 17.228 20 17.8983Z" fill="white"></path></svg>