<svg xmlns="http://www.w3.org/2000/svg" width="76" height="76" viewBox="0 0 76 76" fill="none"><g clip-path="url(#clip0_21_1290)"><path d="M26.0756 40.2266C20.7282 40.2266 16.3778 44.5771 16.3778 49.9244C16.3778 55.2717 20.7282 59.6223 26.0756 59.6223C31.423 59.6223 35.7736 55.2717 35.7736 49.9244C35.7736 44.5771 31.423 40.2266 26.0756 40.2266Z" fill="white"></path><path d="M73.7734 23.8489H40.2266V30.8453C40.2266 32.075 39.2295 33.0719 38 33.0719C36.7702 33.0719 35.7734 32.075 35.7734 30.8453V23.8489H26.0754C22.6464 23.8489 19.3705 24.5155 16.3686 25.7239C16.1837 21.3713 12.5863 17.8867 8.1887 17.8867C3.67353 17.8867 0 21.5601 0 26.0754C0 29.6753 2.33596 32.7379 5.57101 33.8326C2.08287 38.2676 0 43.8573 0 49.9244C0 64.3027 11.6975 76 26.0756 76C40.4537 76 52.1513 64.3025 52.1513 49.9244C52.1513 49.5878 52.1446 49.2498 52.1314 48.9113L74.0497 46.1715C75.1638 46.0322 76.0001 45.0851 76.0001 43.9621V26.0754C76 24.8458 75.0031 23.8489 73.7734 23.8489ZM8.18885 29.8111C6.12898 29.8111 4.45312 28.1353 4.45312 26.0754C4.45312 24.0156 6.12898 22.3398 8.18885 22.3398C10.2487 22.3398 11.9247 24.0156 11.9247 26.0754C11.9247 28.1353 10.2487 29.8111 8.18885 29.8111ZM26.0756 64.0754C18.2728 64.0754 11.9247 57.7272 11.9247 49.9244C11.9247 42.1217 18.2727 35.7734 26.0756 35.7734C33.8785 35.7734 40.2266 42.1217 40.2266 49.9244C40.2266 57.7272 33.8785 64.0754 26.0756 64.0754Z" fill="white"></path><path d="M38 10.4153C39.2295 10.4153 40.2266 9.41836 40.2266 8.1887V2.22656C40.2266 0.996906 39.2295 0 38 0C36.7702 0 35.7734 0.996906 35.7734 2.22656V8.1887C35.7736 9.41836 36.7702 10.4153 38 10.4153Z" fill="white"></path><path d="M21.3965 13.0981L26.5599 16.0792C26.9104 16.2816 27.2932 16.378 27.671 16.378C28.4405 16.378 29.189 15.9787 29.6014 15.2643C30.2162 14.1994 29.8514 12.8376 28.7865 12.2228L23.6231 9.2417C22.5582 8.62672 21.1964 8.99129 20.5816 10.0566C19.9668 11.1215 20.3316 12.4833 21.3965 13.0981Z" fill="white"></path><path d="M48.3293 16.3777C48.7069 16.3777 49.0898 16.2814 49.4404 16.0789L54.6042 13.0979C55.6692 12.483 56.0341 11.1214 55.4193 10.0565C54.8044 8.99134 53.4427 8.62633 52.3778 9.24145L47.214 12.2225C46.1489 12.8374 45.7841 14.199 46.3989 15.2639C46.8114 15.9783 47.5598 16.3777 48.3293 16.3777Z" fill="white"></path></g><defs><clipPath id="clip0_21_1290"><rect width="76" height="76" fill="white"></rect></clipPath></defs></svg>