<svg xmlns="http://www.w3.org/2000/svg" width="77" height="77" viewBox="0 0 77 77" fill="none"><path d="M50.5312 4.8125H45.3049C44.3135 2.01162 41.6378 0 38.5 0C35.3623 0 32.6865 2.01162 31.6903 4.8125H26.4688C25.1405 4.8125 24.0625 5.8905 24.0625 7.21875V16.8438C24.0625 18.172 25.1405 19.25 26.4688 19.25H50.5312C51.8595 19.25 52.9375 18.172 52.9375 16.8438V7.21875C52.9375 5.8905 51.8595 4.8125 50.5312 4.8125Z" fill="white"></path><path d="M62.5625 9.625H57.75V16.8438C57.75 20.8237 54.5112 24.0625 50.5312 24.0625H26.4688C22.4888 24.0625 19.25 20.8237 19.25 16.8438V9.625H14.4375C11.7858 9.625 9.625 11.7858 9.625 14.4375V72.1875C9.625 74.8873 11.7377 77 14.4375 77H62.5625C65.2623 77 67.375 74.8873 67.375 72.1875V14.4375C67.375 11.7377 65.2623 9.625 62.5625 9.625ZM37.7974 52.2349L28.1724 61.8599C27.7008 62.3267 27.0847 62.5625 26.4688 62.5625C25.8528 62.5625 25.2367 62.3267 24.7651 61.8599L19.9526 57.0474C19.0142 56.1089 19.0142 54.5834 19.9526 53.6449C20.8911 52.7065 22.4166 52.7065 23.3551 53.6449L26.4688 56.7538L34.3901 48.8324C35.3286 47.894 36.8541 47.894 37.7926 48.8324C38.731 49.7709 38.7358 51.2916 37.7974 52.2349ZM37.7974 32.9849L28.1724 42.6099C27.7008 43.0767 27.0847 43.3125 26.4688 43.3125C25.8528 43.3125 25.2367 43.0767 24.7651 42.6099L19.9526 37.7974C19.0142 36.8589 19.0142 35.3334 19.9526 34.3949C20.8911 33.4565 22.4166 33.4565 23.3551 34.3949L26.4688 37.5038L34.3901 29.5824C35.3286 28.644 36.8541 28.644 37.7926 29.5824C38.731 30.5209 38.7358 32.0416 37.7974 32.9849ZM55.3438 57.75H45.7188C44.3905 57.75 43.3125 56.672 43.3125 55.3438C43.3125 54.0155 44.3905 52.9375 45.7188 52.9375H55.3438C56.672 52.9375 57.75 54.0155 57.75 55.3438C57.75 56.672 56.672 57.75 55.3438 57.75ZM55.3438 38.5H45.7188C44.3905 38.5 43.3125 37.422 43.3125 36.0938C43.3125 34.7655 44.3905 33.6875 45.7188 33.6875H55.3438C56.672 33.6875 57.75 34.7655 57.75 36.0938C57.75 37.422 56.672 38.5 55.3438 38.5Z" fill="white"></path></svg>