<svg xmlns="http://www.w3.org/2000/svg" width="77" height="77" viewBox="0 0 77 77" fill="none"><g clip-path="url(#clip0_21_1287)"><path d="M70.7324 35.3949H7.45161C3.34283 35.3949 0 32.0521 0 27.9433V22.9755C0 18.8668 3.34283 15.5239 7.45161 15.5239H44.0887V8.46338C44.0887 2.92094 50.8253 0.153903 54.7198 4.10326L75.1539 24.8251C79.0225 28.7481 76.2507 35.3949 70.7324 35.3949Z" fill="white"></path><path d="M22.2802 72.8964L1.84613 52.1745C-2.02297 48.2511 0.751207 41.6047 6.26757 41.6047H69.5484C73.6572 41.6047 77 44.9476 77 49.0563V54.0241C77 58.1329 73.6572 61.4757 69.5484 61.4757H32.9113V68.5363C32.9113 74.0775 26.1758 76.8471 22.2802 72.8964Z" fill="white"></path></g><defs><clipPath id="clip0_21_1287"><rect width="77" height="77" fill="white"></rect></clipPath></defs></svg>