<svg xmlns="http://www.w3.org/2000/svg" width="40" height="40" viewBox="0 0 40 40" fill="none"><circle cx="20" cy="20" r="20" fill="#C15837"></circle><path d="M30.8723 18.253C30.7706 18.1513 30.6246 18.1073 30.4837 18.1356L26.7808 18.8808C26.6255 18.9121 26.5 19.0262 26.4542 19.1777C26.4084 19.3293 26.4497 19.4938 26.5617 19.6059L27.0627 20.1068L25.0965 22.073L23.5744 20.5509C23.4938 20.4704 23.3845 20.4251 23.2706 20.4251C23.1566 20.4251 23.0474 20.4704 22.9668 20.5509L21.0991 22.4187L21.7997 19.9013C21.97 19.2894 21.8473 18.6483 21.463 18.1425C21.2277 17.8327 20.9169 17.6043 20.5657 17.4734L21.1257 15.8736C21.2803 15.8872 21.4344 15.8941 21.5868 15.8941C22.8275 15.8941 24.0371 15.4568 24.993 14.6628L25.0954 14.5778C25.5993 14.1591 25.6854 13.4315 25.2915 12.9214C25.0918 12.6627 24.8031 12.5004 24.4787 12.4646C24.1542 12.4287 23.8371 12.5239 23.586 12.7325L23.4697 12.8292C23.2983 12.9715 23.1109 13.0944 22.9127 13.1944C22.2502 13.5286 21.4228 13.3798 20.8731 12.8357C21.6727 12.588 22.2553 11.8415 22.2553 10.9615C22.2553 9.87993 21.3753 9 20.2937 9C19.2121 9 18.3321 9.87993 18.3321 10.9615C18.3321 11.392 18.4718 11.7902 18.7077 12.114C18.2615 12.21 17.8599 12.4401 17.5526 12.7654C17.5347 12.7811 17.5175 12.7981 17.502 12.8173C16.7445 13.7477 15.7347 14.415 14.5819 14.7471C14.2697 14.8371 14.0227 15.0443 13.8744 15.3071L12.9938 14.4265C12.6085 14.0412 11.9816 14.0413 11.5962 14.4265L10.4438 15.579L9.2913 16.7315C9.10462 16.9181 9.00185 17.1662 9.00185 17.4303C9.00185 17.6942 9.10466 17.9424 9.29126 18.129L12.4666 21.3044C12.6533 21.4911 12.9014 21.5938 13.1654 21.5938C13.4294 21.5938 13.6776 21.491 13.8642 21.3044L15.0575 20.1111L14.4917 21.5948C14.4071 21.8165 14.5183 22.0648 14.74 22.1494C14.7904 22.1686 14.8421 22.1777 14.8931 22.1777C15.0661 22.1777 15.2293 22.0723 15.2946 21.901L16.7038 18.206H19.3939H19.8589C20.2232 18.206 20.5584 18.3723 20.7788 18.6624C20.9992 18.9524 21.0696 19.32 20.9719 19.6709L19.9955 23.1789C19.9516 23.3368 19.8065 23.447 19.6426 23.447C19.4956 23.447 19.4049 23.3665 19.364 23.3185C19.3231 23.2705 19.2577 23.1683 19.2808 23.0232L19.8003 19.7573C19.8201 19.6331 19.7844 19.5065 19.7028 19.4108C19.6211 19.3152 19.5017 19.2601 19.376 19.2601H18.3574C18.1953 19.2601 18.0471 19.3512 17.9739 19.4958C17.9488 19.5454 15.4559 24.4744 14.6159 26.14C14.5318 26.3068 14.349 26.4019 14.1615 26.3763L14.1412 26.3735C14.0133 26.3562 13.9021 26.2827 13.8362 26.1717C13.7702 26.0607 13.7589 25.9279 13.8049 25.8074L14.0696 25.1132C14.1542 24.8915 14.043 24.6432 13.8213 24.5586C13.5996 24.4741 13.3513 24.5853 13.2667 24.807L13.002 25.5011C12.8619 25.8683 12.8968 26.2727 13.0974 26.6106C13.2981 26.9484 13.6366 27.1724 14.0257 27.2251L14.046 27.2278C14.1049 27.2358 14.1636 27.2397 14.2219 27.2397C14.7084 27.2397 15.1608 26.9679 15.3832 26.5269C16.1169 25.0721 18.1125 21.1259 18.6216 20.1194H18.8726L18.4322 22.8882C18.3758 23.2429 18.4772 23.6031 18.7105 23.8764C18.8605 24.0521 19.0548 24.1794 19.2699 24.248L14.4836 29.0342C14.4031 29.1148 14.3578 29.2241 14.3578 29.338C14.3578 29.452 14.4031 29.5613 14.4836 29.6418L15.716 30.8742C15.7999 30.958 15.9099 31 16.0198 31C16.1298 31 16.2397 30.958 16.3236 30.8742L18.6928 28.505C18.8606 28.3372 18.8606 28.0652 18.6928 27.8973C18.525 27.7296 18.253 27.7296 18.0851 27.8973L16.0198 29.9627L15.3951 29.338L23.2707 21.4623L24.7928 22.9844C24.8734 23.065 24.9826 23.1102 25.0966 23.1102C25.2105 23.1102 25.3198 23.065 25.4004 22.9844L27.9741 20.4106C28.1419 20.2428 28.1419 19.9708 27.9741 19.8029L27.7362 19.565L30.0198 19.1054L29.5602 21.389L29.2066 21.0354C29.0387 20.8676 28.7668 20.8676 28.5989 21.0354L25.0965 24.5377L23.5744 23.0156C23.4066 22.8479 23.1346 22.8479 22.9668 23.0156L20.5156 25.4669C20.3478 25.6346 20.3478 25.9067 20.5156 26.0745C20.6834 26.2423 20.9554 26.2423 21.1232 26.0745L23.2706 23.9272L24.7927 25.4492C24.9605 25.617 25.2325 25.617 25.4003 25.4492L28.9027 21.9469L29.5194 22.5636C29.6314 22.6756 29.796 22.7169 29.9475 22.6711C30.0991 22.6253 30.2132 22.4998 30.2445 22.3445L30.9897 18.6415C31.0181 18.5006 30.974 18.3547 30.8723 18.253ZM20.2937 9.85931C20.9015 9.85931 21.396 10.3538 21.396 10.9615C21.396 11.5693 20.9015 12.0638 20.2937 12.0638C19.6859 12.0638 19.1914 11.5693 19.1914 10.9615C19.1914 10.3538 19.6859 9.85931 20.2937 9.85931ZM16.0422 17.4749L15.5193 16.9521C15.7677 16.871 16.0116 16.7783 16.2504 16.6747L16.0422 17.4749ZM14.5922 15.9846C14.5414 15.8083 14.6435 15.6236 14.8198 15.5729C15.5261 15.3694 16.1849 15.0552 16.7784 14.6449L16.5358 15.5777C16.0527 15.8446 15.5385 16.0581 15.0037 16.2121C14.9938 16.2149 14.9834 16.2174 14.9731 16.2194C14.8939 16.2345 14.8146 16.2187 14.748 16.1807L14.6221 16.0549C14.6097 16.0329 14.5994 16.0096 14.5922 15.9846ZM12.2038 15.0341C12.2289 15.009 12.262 14.9964 12.295 14.9964C12.328 14.9964 12.361 15.009 12.3861 15.0341L13.9523 16.6003C14.0249 16.6995 14.1116 16.786 14.2091 16.8571L15.5615 18.2095C15.6118 18.2597 15.6118 18.3416 15.5615 18.3918L14.7129 19.2404L13.769 18.2966L13.9488 18.1168C14.1166 17.9491 14.1166 17.677 13.9488 17.5092L12.9817 16.542C12.8138 16.3743 12.5419 16.3743 12.374 16.542L12.1942 16.7218L11.3552 15.8827L12.2038 15.0341ZM12.7919 18.0585C12.7508 18.0996 12.7028 18.1058 12.6778 18.1058C12.6529 18.1058 12.6049 18.0996 12.5638 18.0585V18.0585L12.4324 17.9271C12.3913 17.886 12.3851 17.838 12.3851 17.8131C12.3851 17.7881 12.3913 17.7401 12.4324 17.699L12.6778 17.4536L13.0373 17.8131L12.7919 18.0585ZM13.2565 20.6968C13.2253 20.728 13.1898 20.7345 13.1654 20.7345C13.1411 20.7345 13.1055 20.728 13.0743 20.6967L9.89892 17.5214C9.86769 17.4901 9.86116 17.4546 9.86116 17.4303C9.86116 17.4059 9.86769 17.3703 9.89892 17.3391L10.7475 16.4905L11.6268 17.3697C11.5608 17.5062 11.5258 17.6569 11.5258 17.8131C11.5258 18.0857 11.632 18.342 11.8248 18.5348L11.9562 18.6661V18.6662C12.1489 18.8589 12.4052 18.9651 12.6778 18.9651C12.834 18.9651 12.9847 18.9301 13.1212 18.8641L14.1052 19.8481L13.2565 20.6968ZM19.3938 17.3466H16.9635L17.8462 13.9535C18.004 13.3469 18.552 12.9232 19.1789 12.9232C19.5662 12.9232 19.9244 13.0793 20.1875 13.3628C20.9948 14.2326 22.2747 14.4789 23.2998 13.9617C23.5558 13.8326 23.7977 13.674 24.0189 13.4902L24.1352 13.3936C24.2053 13.3353 24.2938 13.3086 24.3845 13.3188C24.4749 13.3288 24.5555 13.3741 24.6115 13.4466C24.7194 13.5864 24.6902 13.7974 24.5463 13.9168L24.444 14.0019C23.6421 14.668 22.6274 15.0348 21.5869 15.0348C21.3609 15.0348 21.13 15.0168 20.9004 14.9811C20.6955 14.9489 20.4973 15.068 20.4288 15.2636L19.6996 17.3466H19.3938Z" fill="white"></path><path d="M19.6123 26.5643C19.4993 26.5643 19.3885 26.6103 19.3085 26.6902C19.2286 26.7701 19.1826 26.8809 19.1826 26.994C19.1826 27.1074 19.2286 27.2178 19.3085 27.2977C19.3885 27.3781 19.4993 27.4236 19.6123 27.4236C19.7253 27.4236 19.8362 27.3781 19.916 27.2977C19.9959 27.2178 20.042 27.1074 20.042 26.994C20.042 26.8809 19.996 26.7701 19.916 26.6902C19.8362 26.6103 19.7253 26.5643 19.6123 26.5643Z" fill="white"></path><path d="M14.2799 23.7862C14.3929 23.7862 14.5037 23.7402 14.5836 23.6603C14.6635 23.5804 14.7095 23.4695 14.7095 23.3565C14.7095 23.2435 14.6635 23.1327 14.5836 23.0528C14.5033 22.9729 14.3929 22.9269 14.2799 22.9269C14.1669 22.9269 14.056 22.9728 13.9757 23.0528C13.8958 23.1327 13.8502 23.2435 13.8502 23.3565C13.8502 23.4695 13.8958 23.5804 13.9757 23.6603C14.056 23.7402 14.1664 23.7862 14.2799 23.7862Z" fill="white"></path></svg>