<svg xmlns="http://www.w3.org/2000/svg" width="40" height="40" viewBox="0 0 40 40" fill="none"><circle cx="20" cy="20" r="20" fill="#C15837"></circle><path d="M13.125 23.8125H10.7188C10.5289 23.8125 10.375 23.9664 10.375 24.1562V27.5938C10.375 27.7836 10.5289 27.9375 10.7188 27.9375H13.125C13.3148 27.9375 13.4688 27.7836 13.4688 27.5938V24.1562C13.4688 23.9664 13.3148 23.8125 13.125 23.8125Z" fill="white"></path><path d="M18.625 22.0938H16.2188C16.0289 22.0938 15.875 22.2477 15.875 22.4375V27.5938C15.875 27.7836 16.0289 27.9375 16.2188 27.9375H18.625C18.8148 27.9375 18.9688 27.7836 18.9688 27.5938V22.4375C18.9688 22.2477 18.8148 22.0938 18.625 22.0938Z" fill="white"></path><path d="M24.125 20.0312H21.7187C21.5289 20.0312 21.375 20.1852 21.375 20.375V27.5938C21.375 27.7836 21.5289 27.9375 21.7187 27.9375H24.125C24.3148 27.9375 24.4687 27.7836 24.4687 27.5938V20.375C24.4687 20.1852 24.3148 20.0312 24.125 20.0312Z" fill="white"></path><path d="M29.2812 16.5938H26.875C26.6851 16.5938 26.5312 16.7477 26.5312 16.9375V27.5938C26.5312 27.7836 26.6851 27.9375 26.875 27.9375H29.2812C29.4711 27.9375 29.625 27.7836 29.625 27.5938V16.9375C29.625 16.7477 29.4711 16.5938 29.2812 16.5938Z" fill="white"></path><path d="M29.6628 9.87349L25.5 10.0626C25.4339 10.066 25.3702 10.0886 25.3165 10.1274C25.2629 10.1662 25.2216 10.2197 25.1977 10.2814C25.1737 10.3431 25.1681 10.4105 25.1815 10.4753C25.1949 10.5401 25.2267 10.5997 25.2731 10.6469L26.1531 11.5269C24.3931 13.2703 22.4977 14.8715 20.4847 16.3154C16.81 19.0001 10.375 20.3751 10.3028 20.3751C10.2116 20.3819 10.1269 20.4247 10.0673 20.494C10.0077 20.5633 9.978 20.6534 9.98484 20.7446C9.99168 20.8358 10.0344 20.9205 10.1037 20.9801C10.1731 21.0397 10.2632 21.0694 10.3544 21.0626C13.4481 21.2516 17.9547 20.5779 21.1859 18.9622C23.8602 17.6634 26.2398 15.8301 28.1778 13.5757L29.24 14.6379C29.287 14.6854 29.3469 14.7182 29.4123 14.7322C29.4777 14.7463 29.5458 14.7409 29.6082 14.7168C29.6705 14.6927 29.7246 14.651 29.7636 14.5967C29.8026 14.5423 29.8249 14.4778 29.8278 14.411L30.0237 10.231C30.0257 10.1832 30.0177 10.1356 30.0002 10.0911C29.9827 10.0466 29.9562 10.0062 29.9222 9.97257C29.8882 9.93892 29.8476 9.91274 29.8029 9.89568C29.7583 9.87862 29.7106 9.87106 29.6628 9.87349Z" fill="white"></path></svg>