<svg xmlns="http://www.w3.org/2000/svg" width="40" height="40" viewBox="0 0 40 40" fill="none"><circle cx="20" cy="20" r="20" fill="#C15837"></circle><g clip-path="url(#clip0_201_9)"><path d="M12.8717 24.8812C12.9803 24.8812 13.0908 24.8546 13.1936 24.7988C13.4596 24.6544 13.6595 24.4352 13.7822 24.1815C13.788 24.1817 13.7939 24.1822 13.7998 24.1822C13.9105 24.1822 14.0209 24.1549 14.1201 24.1011C14.3641 23.9686 14.5525 23.7732 14.6766 23.546C14.7658 23.5376 14.8531 23.5115 14.9339 23.4677C15.2612 23.2901 15.4997 22.9956 15.6055 22.6386C15.7113 22.2816 15.6718 21.9047 15.4942 21.5775L14.6773 20.0724C14.9079 19.7156 15.3908 18.8981 15.687 17.899C15.8393 17.3851 15.9511 16.8297 16.0192 16.2483C16.091 15.6364 15.8817 15.035 15.445 14.5983L11.7893 10.9425C11.6634 10.8167 11.4593 10.8167 11.3335 10.9425C11.2076 11.0684 11.2076 11.2725 11.3335 11.3983L14.9893 15.054C15.2857 15.3504 15.4278 15.7583 15.3791 16.1732C15.3153 16.7181 15.2109 17.2371 15.069 17.7159C14.8707 18.385 14.5807 18.9668 14.3552 19.3614L13.9688 18.6495C14.5814 18.2682 14.9286 17.2885 14.9444 16.5569C14.9482 16.3789 14.8071 16.2316 14.6292 16.2277C14.6267 16.2277 14.6244 16.2276 14.6221 16.2276C14.4474 16.2276 14.3038 16.3674 14.3 16.543C14.2864 17.1736 13.9772 17.8886 13.6248 18.1044C13.5879 18.127 13.4614 18.1944 13.3835 18.2349C13.3068 18.2749 13.2494 18.3439 13.2241 18.4265C13.1988 18.5092 13.2078 18.5985 13.249 18.6745L13.925 19.9199C14.1557 20.3451 13.9975 20.8788 13.5723 21.1096C13.5382 21.1281 13.4955 21.1168 13.4749 21.0839L12.142 18.9481L12.0723 17.4085C12.0614 17.1683 12.1436 16.9372 12.3037 16.7578L12.9798 16.0003L13.5348 15.6991C13.6912 15.6142 13.7492 15.4186 13.6643 15.2622C13.5794 15.1058 13.3837 15.0477 13.2274 15.1327L12.6231 15.4607C12.5904 15.4784 12.5611 15.5016 12.5363 15.5293L12.4187 15.6611L9.5331 13.1657C9.39852 13.0493 9.19502 13.0641 9.07854 13.1987C8.96209 13.3333 8.97687 13.5368 9.11149 13.6533L11.9895 16.142L11.8229 16.3286C11.55 16.6343 11.4099 17.0282 11.4284 17.4376L11.4664 18.2772C11.4641 18.2837 11.1067 19.4871 11.1067 19.4871C11.0561 19.6577 11.1535 19.8371 11.3241 19.8876C11.3547 19.8967 11.3855 19.901 11.4159 19.901C11.5549 19.901 11.6832 19.8103 11.7247 19.6702L11.7596 19.5526L12.4434 20.6482L12.2519 21.2943C12.2276 21.3762 12.2369 21.4644 12.2776 21.5395L13.1875 23.2159C13.283 23.3919 13.3043 23.5945 13.2474 23.7865C13.1905 23.9784 13.0622 24.1367 12.8863 24.2323C12.8738 24.239 12.8579 24.2345 12.8508 24.2222L11.2149 21.3908L11.2929 21.1275C11.3435 20.9568 11.2461 20.7775 11.0755 20.7269C10.905 20.6764 10.7255 20.7737 10.675 20.9443L10.5576 21.3405C10.5324 21.4253 10.5433 21.5167 10.5875 21.5933L12.2927 24.5447C12.4173 24.7606 12.6404 24.8812 12.8717 24.8812ZM14.9876 22.4555C14.9575 22.5568 14.9072 22.6483 14.8409 22.7265C14.8221 22.5507 14.7697 22.3757 14.6803 22.2109L14.2417 21.4028C14.339 21.3032 14.4208 21.1915 14.4864 21.0718L14.9277 21.8849C15.0232 22.0609 15.0444 22.2635 14.9876 22.4555ZM13.0018 21.5228C13.1401 21.6778 13.337 21.7628 13.5384 21.7628C13.5904 21.7628 13.6426 21.7568 13.6942 21.7453L14.1138 22.5184C14.2904 22.8438 14.1997 23.243 13.9179 23.4644C13.9033 23.2752 13.85 23.0859 13.7538 22.9086L13.0018 21.5228Z" fill="white"></path><path d="M28.612 21.7916L29.5215 18.7384C29.5467 18.6536 29.5358 18.5622 29.4916 18.4856L27.7864 15.5342C27.603 15.2171 27.2073 15.1054 26.8853 15.2802C26.6254 15.4213 26.4218 15.6361 26.2959 15.8974C26.1798 15.8944 26.0637 15.921 25.9589 15.9779C25.7147 16.1104 25.5263 16.3059 25.4021 16.5333C25.3126 16.5418 25.2252 16.5678 25.145 16.6113C24.8177 16.7889 24.5792 17.0834 24.4734 17.4404C24.3675 17.7974 24.4071 18.1743 24.5847 18.5015L25.4016 20.0066C25.1646 20.3729 24.687 21.1844 24.392 22.1799C24.2396 22.6939 24.1278 23.2493 24.0597 23.8307C23.9879 24.4426 24.1972 25.044 24.6339 25.4807L28.2108 29.0576C28.2737 29.1205 28.3562 29.152 28.4387 29.152C28.5211 29.152 28.6036 29.1205 28.6666 29.0576C28.7924 28.9317 28.7924 28.7276 28.6666 28.6018L25.0896 25.0249C24.7933 24.7286 24.6512 24.3206 24.6999 23.9057C24.7637 23.3608 24.868 22.8419 25.0099 22.3631C25.2078 21.6954 25.5022 21.1078 25.7242 20.7183L26.1102 21.4295C25.4976 21.8108 25.1504 22.7905 25.1346 23.5222C25.1308 23.7001 25.2719 23.8474 25.4498 23.8513C25.6292 23.8565 25.7752 23.714 25.779 23.5361C25.7926 22.9055 26.1018 22.1904 26.4542 21.9746C26.4911 21.952 26.6176 21.8847 26.6955 21.8441C26.7722 21.8042 26.8296 21.7352 26.8549 21.6525C26.8802 21.5698 26.8712 21.4805 26.83 21.4045L26.1539 20.159C25.9232 19.7338 26.0814 19.2001 26.5066 18.9694C26.5407 18.9508 26.5834 18.9622 26.604 18.9951L27.9369 21.1308L28.0066 22.6705C28.0175 22.9107 27.9353 23.1418 27.7752 23.3211L27.0991 24.0786L26.5441 24.3798C26.3877 24.4647 26.3297 24.6604 26.4146 24.8168C26.473 24.9244 26.5837 24.9854 26.6981 24.9854C26.75 24.9854 26.8028 24.9728 26.8516 24.9463L27.4558 24.6183C27.4885 24.6005 27.5178 24.5773 27.5425 24.5496L27.662 24.4158L30.4673 26.8346C30.5282 26.8871 30.6031 26.9128 30.6777 26.9128C30.7681 26.9128 30.8581 26.8749 30.9219 26.801C31.0381 26.6662 31.023 26.4627 30.8883 26.3464L28.0913 23.9349L28.2561 23.7503C28.529 23.4445 28.6691 23.0507 28.6505 22.6413L28.612 21.7916ZM25.0914 17.6235C25.1214 17.5222 25.1717 17.4307 25.2381 17.3524C25.2568 17.5283 25.3092 17.7033 25.3986 17.8681L25.8372 18.6762C25.7399 18.7758 25.6582 18.8875 25.5925 19.0072L25.1513 18.1941C25.0557 18.0181 25.0344 17.8155 25.0914 17.6235ZM26.3846 18.3337L25.965 17.5606C25.7886 17.2355 25.8789 16.8367 26.1602 16.6151C26.1753 16.8073 26.2303 16.9959 26.325 17.1704L27.0778 18.5574C26.9039 18.3616 26.6366 18.2774 26.3846 18.3337ZM27.6356 19.4307L27.8271 18.7846C27.8514 18.7027 27.8422 18.6145 27.8014 18.5393L26.8915 16.8629C26.796 16.6869 26.7747 16.4843 26.8316 16.2924C26.8885 16.1004 27.0168 15.9421 27.1927 15.8466C27.2052 15.8399 27.2211 15.8444 27.2282 15.8566L28.8641 18.688L28.3193 20.5263L27.6356 19.4307Z" fill="white"></path><path d="M18.2988 28.5411L21.3406 29.4426C21.3706 29.4515 21.4014 29.4559 21.4321 29.4559C21.4882 29.4559 21.5439 29.4413 21.5934 29.4127L24.5448 27.7074C24.862 27.5241 24.9736 27.1283 24.7988 26.8064C24.6545 26.5404 24.4354 26.3405 24.1817 26.2178C24.1849 26.1011 24.1583 25.9851 24.1012 25.8799C23.9687 25.6358 23.7732 25.4474 23.5459 25.3233C23.5376 25.2338 23.5114 25.1467 23.4677 25.0661C23.2901 24.7388 22.9957 24.5003 22.6387 24.3945C22.2816 24.2887 21.9048 24.3282 21.5776 24.5058L20.0724 25.3227C19.7441 25.1111 18.9076 24.612 17.8991 24.313C17.3853 24.1607 16.83 24.0489 16.2484 23.9807C15.6365 23.9091 15.035 24.1183 14.5984 24.555L10.9426 28.2108C10.8168 28.3366 10.8168 28.5407 10.9426 28.6665C11.0056 28.7294 11.088 28.7609 11.1705 28.7609C11.253 28.7609 11.3355 28.7294 11.3984 28.6665L15.0542 25.0107C15.3505 24.7144 15.7585 24.5722 16.1734 24.6209C16.7185 24.6848 17.2375 24.7891 17.716 24.931C18.3841 25.129 18.9711 25.4229 19.3609 25.6451L18.6496 26.0312C18.2683 25.4186 17.2886 25.0714 16.557 25.0556C16.5545 25.0555 16.5522 25.0555 16.5499 25.0555C16.3752 25.0555 16.2316 25.1952 16.2278 25.3708C16.2239 25.5487 16.3651 25.6961 16.543 25.6999C17.1737 25.7135 17.8887 26.0228 18.1045 26.3751C18.1272 26.4121 18.1945 26.5385 18.235 26.6165C18.2749 26.6931 18.344 26.7506 18.4267 26.7758C18.5092 26.8011 18.5986 26.7922 18.6746 26.7509L19.9201 26.075C20.126 25.9631 20.3632 25.9382 20.5879 26.0049C20.8126 26.0715 20.9979 26.2216 21.1097 26.4276C21.1282 26.4616 21.1169 26.5044 21.084 26.525L18.9483 27.8579L17.4086 27.9276C17.1679 27.9384 16.9374 27.8563 16.758 27.6962L16.0005 27.0201L15.6993 26.4651C15.6143 26.3087 15.4187 26.2507 15.2623 26.3356C15.1059 26.4205 15.0479 26.6161 15.1328 26.7726L15.4607 27.3769C15.4784 27.4095 15.5017 27.4388 15.5294 27.4636L15.6612 27.5813L13.1658 30.4669C13.0494 30.6015 13.0642 30.805 13.1988 30.9214C13.2597 30.9742 13.3347 31 13.4094 31C13.4998 31 13.5896 30.9622 13.6533 30.8885L16.1421 28.0105L16.3287 28.1771C16.6165 28.434 16.9823 28.5732 17.3658 28.5732C17.3897 28.5732 17.4137 28.5726 17.4377 28.5716L18.2988 28.5411ZM21.7453 26.3057L22.5183 25.8862C22.8437 25.7096 23.2428 25.8002 23.4644 26.082C23.2751 26.0966 23.0858 26.1499 22.9085 26.2461L21.5217 26.9989C21.7174 26.8249 21.8016 26.5578 21.7453 26.3057ZM21.885 25.0724C22.0608 24.9768 22.2635 24.9555 22.4554 25.0125C22.5567 25.0425 22.6482 25.0929 22.7265 25.1591C22.5507 25.1779 22.3757 25.2302 22.2109 25.3197L21.4033 25.758C21.3051 25.6617 21.194 25.5795 21.0728 25.5131L21.885 25.0724ZM24.2223 27.1493L21.3909 28.7853L19.5526 28.2405L20.6482 27.5567L21.2943 27.7482C21.3762 27.7725 21.4645 27.7632 21.5397 27.7225L23.216 26.8126C23.5792 26.6155 24.0351 26.7506 24.2323 27.1138C24.2392 27.1265 24.2348 27.1421 24.2223 27.1493Z" fill="white"></path><path d="M23.9057 15.3002C23.6401 15.269 23.375 15.2271 23.1176 15.1756C22.9431 15.1407 22.7733 15.2539 22.7384 15.4285C22.7035 15.603 22.8167 15.7728 22.9912 15.8077C23.2655 15.8625 23.5479 15.9071 23.8306 15.9403C23.9097 15.9496 23.9886 15.9541 24.067 15.9541C24.5953 15.9541 25.1004 15.7463 25.4806 15.366L29.0575 11.7891C29.1834 11.6633 29.1834 11.4592 29.0575 11.3334C28.9317 11.2076 28.7276 11.2075 28.6017 11.3334L25.0249 14.9103C24.7285 15.2067 24.3207 15.3489 23.9057 15.3002Z" fill="white"></path><path d="M15.8981 13.7036C15.8951 13.8198 15.921 13.9365 15.9778 14.0412C16.1103 14.2852 16.3058 14.4732 16.533 14.5974C16.5413 14.687 16.5674 14.7742 16.6112 14.855C16.7889 15.1823 17.0833 15.4208 17.4403 15.5266C17.5715 15.5655 17.7053 15.5847 17.8384 15.5847C18.0675 15.5847 18.2944 15.5276 18.5015 15.4152L20.0067 14.5983C20.2611 14.7626 20.797 15.0849 21.477 15.3609C21.5167 15.377 21.5577 15.3846 21.598 15.3846C21.7254 15.3846 21.846 15.3086 21.8968 15.1833C21.9637 15.0184 21.8842 14.8305 21.7193 14.7635C21.3212 14.6021 20.9771 14.4238 20.718 14.276L21.4294 13.8899C21.8107 14.5025 22.7904 14.8497 23.5221 14.8655C23.5245 14.8655 23.5268 14.8656 23.5291 14.8656C23.7039 14.8656 23.8474 14.7258 23.8512 14.5502C23.8551 14.3723 23.7139 14.2249 23.536 14.2211C22.9053 14.2075 22.1903 13.8982 21.9745 13.5459C21.9519 13.5089 21.8845 13.3825 21.844 13.3046C21.8041 13.2279 21.735 13.1705 21.6524 13.1452C21.5698 13.1199 21.4804 13.1289 21.4044 13.1701L20.159 13.846C19.953 13.9579 19.7158 13.9827 19.4912 13.9161C19.2665 13.8495 19.0812 13.6994 18.9693 13.4934C18.9508 13.4594 18.9621 13.4166 18.995 13.396L21.1308 12.0631L22.6705 11.9933C22.9107 11.9827 23.1417 12.0647 23.3211 12.2248L24.0786 12.9009L24.3798 13.4559C24.4647 13.6123 24.6603 13.6702 24.8167 13.5854C24.9732 13.5005 25.0312 13.3048 24.9463 13.1484L24.6183 12.5441C24.6006 12.5115 24.5774 12.4822 24.5497 12.4574L24.4159 12.338L26.8346 9.53261C26.9508 9.39782 26.9358 9.19432 26.801 9.07809C26.6662 8.96186 26.4627 8.9769 26.3465 9.11173L23.9349 11.9087L23.7503 11.7439C23.4446 11.4709 23.0505 11.3309 22.6414 11.3494L21.805 11.3873L18.7384 10.4784C18.6536 10.4533 18.5622 10.464 18.4856 10.5083L15.5342 12.2136C15.217 12.3969 15.1054 12.7927 15.2801 13.1146C15.4246 13.381 15.6441 13.581 15.8981 13.7036ZM18.3336 13.6154L17.5606 14.035C17.235 14.2116 16.8358 14.1209 16.6144 13.839C16.8037 13.8244 16.993 13.7712 17.1704 13.675L18.5572 12.9222C18.3616 13.0962 18.2773 13.3634 18.3336 13.6154ZM18.194 14.8488C18.018 14.9443 17.8154 14.9655 17.6235 14.9086C17.5221 14.8786 17.4305 14.8282 17.3522 14.7618C17.528 14.7431 17.7032 14.6909 17.868 14.6015L18.6757 14.1631C18.7739 14.2595 18.885 14.3416 19.0061 14.4081L18.194 14.8488ZM15.8566 12.7718L18.6881 11.1358L20.5263 11.6807L19.4307 12.3644L18.7845 12.1729C18.7026 12.1486 18.6144 12.1578 18.5392 12.1986L16.8628 13.1085C16.6868 13.204 16.4842 13.2252 16.2924 13.1684C16.1004 13.1115 15.9421 12.9832 15.8466 12.8073C15.8397 12.7945 15.8441 12.7789 15.8566 12.7718Z" fill="white"></path><path d="M20.0141 22.8146C20.0063 22.8225 19.9935 22.8224 19.9858 22.8146L18.7212 21.5499C18.5953 21.4241 18.3912 21.424 18.2654 21.5499C18.1395 21.6758 18.1395 21.8798 18.2654 22.0057L19.53 23.2704C19.6596 23.3999 19.8298 23.4647 20 23.4647C20.1701 23.4647 20.3403 23.3999 20.4699 23.2704L22.7501 20.9901C23.569 20.1691 23.5681 18.8342 22.7482 18.0143C22.0003 17.2663 20.8239 17.2001 20 17.8156C19.176 17.2 17.9996 17.2664 17.2517 18.0143C16.4562 18.8098 16.4251 20.085 17.1809 20.9173C17.3006 21.0491 17.5044 21.0589 17.6362 20.9393C17.7679 20.8197 17.7777 20.6158 17.6581 20.4841C17.1339 19.9067 17.1556 19.022 17.7074 18.47C18.2764 17.901 19.2027 17.9005 19.7724 18.4687C19.8982 18.5942 20.1017 18.5943 20.2276 18.4687C20.7973 17.9005 21.7236 17.9011 22.2925 18.47C22.8615 19.0389 22.8621 19.9652 22.2941 20.5346L20.0141 22.8146Z" fill="white"></path></g><defs><clipPath id="clip0_201_9"><rect width="22" height="22" fill="white" transform="translate(9 9)"></rect></clipPath></defs></svg>