<svg xmlns="http://www.w3.org/2000/svg" width="80" height="80" viewBox="0 0 80 80" fill="none">
<path d="M17.1615 77.5327L14.8092 74.2192C14.3098 73.5155 13.3343 73.35 12.6306 73.8496C11.927 74.3491 11.7614 75.3244 12.261 76.0281L14.6134 79.3417C14.9181 79.7709 15.3996 79.9998 15.8888 79.9998C16.2017 79.9998 16.5174 79.9061 16.792 79.7113C17.4956 79.2117 17.6612 78.2364 17.1615 77.5327Z" fill="#C15837"></path>
<path d="M35.1883 78.1162L32.6283 65.915C31.3835 59.9819 27.9272 54.8516 22.8966 51.469L17.4309 47.7937C15.2392 46.3202 12.2932 46.6371 10.4614 48.5051V29.6776C10.4614 27.2064 8.77653 25.1067 6.36403 24.5712C4.80701 24.2253 3.20108 24.6 1.95718 25.598C0.713431 26.5959 0.000152588 28.0829 0.000152588 29.6776V53.9044C0.000152588 57.0783 0.971399 60.1241 2.80874 62.7123L5.59513 66.6375C5.89982 67.0667 6.38138 67.2956 6.8706 67.2956C7.18341 67.2956 7.49919 67.2019 7.77372 67.007C8.47731 66.5075 8.64293 65.5322 8.14325 64.8284L5.35685 60.9033C3.89686 58.8466 3.12514 56.4264 3.12514 53.9043V29.6776C3.12514 29.0358 3.41233 28.4372 3.91295 28.0353C4.41342 27.6336 5.05982 27.4828 5.68701 27.622C6.6581 27.8375 7.33637 28.6828 7.33637 29.6776V48.8988C7.33637 51.6197 8.33606 54.2121 10.1521 56.2289C10.23 56.3222 10.31 56.4146 10.3945 56.5041C11.4321 57.6036 12.6521 58.8992 13.8012 60.1205L15.4098 61.8325C15.4149 61.838 15.4206 61.8427 15.4259 61.848C16.802 63.3116 17.8168 64.3923 17.8381 64.4148C18.4285 65.0437 19.4176 65.075 20.0466 64.4842C20.6757 63.8934 20.7068 62.9047 20.1159 62.2756C20.0874 62.2453 18.2584 60.2977 16.1696 58.0775L12.587 54.2646C12.5779 54.2549 12.5696 54.2447 12.5606 54.235C11.7206 53.2303 11.731 51.7736 12.6115 50.7796C13.3904 49.9005 14.7129 49.7318 15.6874 50.3869L21.1529 54.0622C25.5041 56.988 28.4933 61.4252 29.5699 66.5567L32.13 78.7581C32.2846 79.4945 32.9341 79.9999 33.6577 79.9999C33.7639 79.9999 33.8719 79.989 33.98 79.9663C34.8246 79.7892 35.3655 78.9607 35.1883 78.1162Z" fill="#C15837"></path>
<path d="M11.5764 69.6653L11.5664 69.6512C11.0648 68.9487 10.0892 68.7856 9.38683 69.2868C8.68449 69.7881 8.52137 70.7638 9.02246 71.4662L9.03246 71.4802C9.33746 71.9076 9.81792 72.1354 10.3057 72.1354C10.6198 72.1354 10.9368 72.041 11.212 71.8446C11.9142 71.3434 12.0774 70.3676 11.5764 69.6653Z" fill="#C15837"></path>
<path d="M78.0427 25.5982C76.7989 24.6002 75.1922 24.2262 73.636 24.5715C71.2235 25.1068 69.5385 27.2066 69.5385 29.6779V48.5053C67.7068 46.6373 64.7605 46.3204 62.569 47.7939L57.1032 51.469C52.0724 54.8515 48.6164 59.982 47.3715 65.9151L44.8115 78.1164C44.6343 78.9609 45.1753 79.7892 46.0198 79.9664C46.1279 79.9891 46.2361 80 46.3422 80C47.0659 80 47.7153 79.4944 47.8698 78.758L50.4298 66.5566C51.5065 61.4252 54.4956 56.9879 58.8468 54.0623L64.3125 50.3871C65.2868 49.7318 66.6093 49.9006 67.3885 50.7796C68.2678 51.7725 68.2796 53.2268 67.4427 54.2315C67.4327 54.2424 67.4232 54.2537 67.4132 54.2646C67.4132 54.2646 59.9124 62.2457 59.8841 62.2757C59.2934 62.9048 59.3244 63.8935 59.9534 64.4843C60.5824 65.0751 61.5712 65.044 62.1619 64.4149C62.1832 64.3924 68.5678 57.6038 69.6055 56.5043C69.69 56.4148 69.77 56.3224 69.8478 56.2292C71.6638 54.2123 72.6636 51.62 72.6636 48.899V29.6777C72.6636 28.6829 73.3419 27.8376 74.3131 27.6221C74.9402 27.483 75.5864 27.6338 76.0872 28.0354C76.5878 28.4371 76.875 29.0357 76.875 29.6777V53.9045C76.875 56.4267 76.1033 58.8468 74.6433 60.9035L62.8385 77.5327C62.339 78.2363 62.5044 79.2117 63.208 79.7113C63.4827 79.9061 63.7983 79.9998 64.1111 79.9998C64.6002 79.9998 65.0819 79.7708 65.3866 79.3417L77.1914 62.7126C79.0287 60.1243 80 57.0785 80 53.9046V29.6777C79.9995 28.083 79.2864 26.5961 78.0427 25.5982Z" fill="#C15837"></path>
<path d="M59.7901 29.9468L57.0102 29.2827V28.7843C58.8169 27.5187 60.0016 25.4229 60.0016 23.0545V19.4406C60.0016 15.5845 56.8646 12.4475 53.0085 12.4475C51.2781 12.4475 49.6937 13.0806 48.4714 14.1256C47.1104 10.7928 43.8358 8.4375 40.0195 8.4375C36.1986 8.4375 32.9205 10.7989 31.5627 14.1381C30.3385 13.0856 28.7483 12.4472 27.0108 12.4472C23.1548 12.4472 20.0177 15.5842 20.0177 19.4403V19.6804V23.0542C20.0177 25.4226 21.2024 27.5184 23.0091 28.784V29.2824L20.2293 29.9465C16.9102 30.7394 14.5921 33.6765 14.5921 37.089V40.0071C14.5921 40.87 15.2918 41.5696 16.1546 41.5696H23.3346C23.3235 41.7591 23.3158 41.9496 23.3158 42.1416V47.76C23.3158 48.623 24.0155 49.3225 24.8783 49.3225H34.2705C35.1333 49.3225 35.833 48.623 35.833 47.76C35.833 46.897 35.1333 46.1975 34.2705 46.1975H32.6561V42.9686C32.6561 42.1057 31.9564 41.4061 31.0936 41.4061C30.2308 41.4061 29.5311 42.1057 29.5311 42.9686V46.1978H26.441V42.1419C26.441 39.1283 28.4879 36.5332 31.4182 35.831L35.706 34.8035L38.5755 41.3319C38.8248 41.8992 39.3861 42.2657 40.0056 42.2657H40.0058C40.6255 42.2657 41.1867 41.8994 41.4361 41.3321L44.3026 34.8133L48.5768 35.8344C51.51 36.5352 53.5585 39.1307 53.5585 42.1464V46.1978H50.4684V42.9686C50.4684 42.1057 49.7687 41.4061 48.9059 41.4061C48.0431 41.4061 47.3434 42.1057 47.3434 42.9686V46.1978H45.5726C44.7098 46.1978 44.0101 46.8974 44.0101 47.7603C44.0101 48.6233 44.7098 49.3228 45.5726 49.3228H55.1212C55.984 49.3228 56.6837 48.6233 56.6837 47.7603V42.1464C56.6837 41.9528 56.6759 41.761 56.6646 41.5699H63.8649C64.7277 41.5699 65.4274 40.8703 65.4274 40.0074V37.0893C65.4274 33.6768 63.1093 30.7396 59.7901 29.9468ZM53.0085 15.5722C55.0557 15.5722 56.7363 17.1707 56.8682 19.1851H54.6959C52.8696 19.1851 51.0725 18.7454 49.457 17.9082C50.0512 16.5351 51.4196 15.5722 53.0085 15.5722ZM49.1404 22.826C49.1423 22.7499 49.1462 22.6742 49.1462 22.5976V21.206C50.8995 21.9317 52.7849 22.3101 54.6959 22.3101H56.8766V23.0543C56.8766 25.1871 55.1415 26.9224 53.0085 26.9224C50.8756 26.9224 49.1404 25.1871 49.1404 23.0542V22.826ZM34.018 17.564C34.018 14.2548 36.7102 11.5625 40.0195 11.5625C43.0044 11.5625 45.487 13.7528 45.9454 16.6103L43.315 15.0648C42.657 14.6783 41.8161 14.8234 41.3259 15.4086C40.0405 16.9426 38.1553 17.8225 36.1538 17.8225H34.018V17.564ZM27.011 15.5722C28.5999 15.5722 29.9682 16.5353 30.5625 17.9081C28.9469 18.7453 27.1499 19.185 25.3237 19.185H23.1513C23.2832 17.1707 24.964 15.5722 27.011 15.5722ZM23.1429 22.3099H25.3237C27.2366 22.3099 29.1241 21.9307 30.8791 21.2035V23.054C30.8791 25.1868 29.1439 26.9221 27.011 26.9221C24.878 26.9221 23.1429 25.1871 23.1429 23.0542V22.3099ZM30.69 32.7919C27.616 33.5285 25.2001 35.6718 24.0502 38.4447H17.7171V37.0891C17.7171 35.1288 19.0487 33.4415 20.9554 32.986L24.9347 32.0354C25.638 31.8674 26.1343 31.2388 26.1343 30.5157V29.9904C26.4218 30.0265 26.714 30.0473 27.011 30.0473C27.3058 30.0473 27.596 30.0268 27.8813 29.9912V30.4369C27.8802 30.4602 27.8797 30.4835 27.8796 30.5068C27.8793 31.0194 28.1313 31.5216 28.5941 31.821C28.7685 31.934 28.9569 32.0074 29.1493 32.0441L31.48 32.6026L30.69 32.7919ZM35.0485 30.3663C34.6471 30.1893 34.2286 30.0477 33.7974 29.9445L31.0061 29.2755V28.7887C31.5099 28.4366 31.9653 28.0205 32.3603 27.5515C33.0581 28.6265 33.975 29.5457 35.0485 30.2459V30.3663ZM41.8347 32.6621L40.0062 36.8207L38.1736 32.6515V31.5365C38.77 31.6594 39.3873 31.7243 40.0195 31.7243C40.6409 31.7243 41.2478 31.6613 41.8347 31.5424V32.6621ZM40.0195 28.5991C36.7102 28.5993 34.018 25.907 34.018 22.5976V20.9473H36.1538C38.6316 20.9473 40.9875 20.0259 42.7931 18.3825L46.0153 20.2756V22.8262C45.8947 26.0298 43.2523 28.5991 40.0195 28.5991ZM44.9597 30.3713V30.2655C46.0418 29.5659 46.9668 28.6443 47.6701 27.5646C48.0625 28.0284 48.514 28.4399 49.0129 28.7887V29.2755L46.2215 29.9445C45.7865 30.0488 45.3645 30.1921 44.9597 30.3713ZM62.3022 38.4447H55.9476C54.7967 35.6718 52.379 33.5297 49.3031 32.7949L48.5186 32.6076L50.8618 32.046C51.0568 32.0098 51.2484 31.9354 51.4251 31.821C51.8871 31.5221 52.1384 31.0199 52.1384 30.5073C52.1384 30.4951 52.1382 30.4827 52.1379 30.4705V29.9912C52.4234 30.0268 52.7134 30.0473 53.0082 30.0473C53.3053 30.0473 53.5974 30.0265 53.8849 29.9904V30.5157C53.8849 31.2388 54.3812 31.8674 55.0845 32.0354L59.0638 32.986C60.9705 33.4416 62.3022 35.1288 62.3022 37.0891V38.4447Z" fill="#C15837"></path>
<path d="M41.1044 46.6545C40.8123 46.3639 40.4108 46.1982 39.9998 46.1982C39.5872 46.1982 39.1858 46.3639 38.8952 46.6545C38.603 46.9467 38.4373 47.3482 38.4373 47.7607C38.4373 48.1717 38.603 48.5732 38.8952 48.8654C39.1858 49.156 39.5873 49.3232 39.9998 49.3232C40.4108 49.3232 40.8123 49.156 41.1044 48.8654C41.395 48.5732 41.5623 48.1717 41.5623 47.7607C41.5623 47.3482 41.3951 46.9467 41.1044 46.6545Z" fill="#C15837"></path>
<path d="M39.9987 0C39.1359 0 38.4362 0.699529 38.4362 1.56249V3.90045C38.4362 4.76342 39.1359 5.46295 39.9987 5.46295C40.8616 5.46295 41.5612 4.76342 41.5612 3.90045V1.56249C41.5612 0.699529 40.8617 0 39.9987 0Z" fill="#C15837"></path>
<path d="M34.2431 5.09665L32.6041 3.45916C31.9936 2.84916 31.0044 2.84963 30.3944 3.4601C29.7844 4.07056 29.785 5.05993 30.3955 5.66978L32.0347 7.30727C32.3397 7.61211 32.7394 7.76445 33.1389 7.76445C33.5391 7.76445 33.9391 7.61164 34.2442 7.30633C34.8539 6.69587 34.8536 5.70649 34.2431 5.09665Z" fill="#C15837"></path>
<path d="M49.5657 3.49912C48.9553 2.88928 47.9657 2.88959 47.3561 3.50021L45.7297 5.12818C45.1198 5.73864 45.1203 6.72801 45.7307 7.33785C46.0359 7.6427 46.4354 7.79504 46.8351 7.79504C47.2353 7.79504 47.6354 7.64223 47.9404 7.33676L49.5668 5.7088C50.1767 5.09833 50.1762 4.10896 49.5657 3.49912Z" fill="#C15837"></path>
</svg>