<svg xmlns="http://www.w3.org/2000/svg" width="80" height="80" viewBox="0 0 80 80" fill="none"><path d="M2 80H78C78.5304 80 79.0391 79.7893 79.4142 79.4142C79.7893 79.0391 80 78.5304 80 78V30C80 29.4696 79.7893 28.9609 79.4142 28.5858C79.0391 28.2107 78.5304 28 78 28H68V10C68 9.46957 67.7893 8.96086 67.4142 8.58579C67.0391 8.21071 66.5304 8 66 8H56V6C56 4.4087 55.3679 2.88258 54.2426 1.75736C53.1174 0.632141 51.5913 0 50 0H30C28.4087 0 26.8826 0.632141 25.7574 1.75736C24.6321 2.88258 24 4.4087 24 6V8H14C13.4696 8 12.9609 8.21071 12.5858 8.58579C12.2107 8.96086 12 9.46957 12 10V28H2C1.46957 28 0.96086 28.2107 0.585787 28.5858C0.210714 28.9609 0 29.4696 0 30V78C0 78.5304 0.210714 79.0391 0.585787 79.4142C0.96086 79.7893 1.46957 80 2 80ZM68 32H76V76H68V32ZM46 76H34V62H46V76ZM28 6C28 5.46957 28.2107 4.96086 28.5858 4.58579C28.9609 4.21071 29.4696 4 30 4H50C50.5304 4 51.0391 4.21071 51.4142 4.58579C51.7893 4.96086 52 5.46957 52 6V26C52 26.5304 51.7893 27.0391 51.4142 27.4142C51.0391 27.7893 50.5304 28 50 28H30C29.4696 28 28.9609 27.7893 28.5858 27.4142C28.2107 27.0391 28 26.5304 28 26V6ZM16 12H24V26C24 27.5913 24.6321 29.1174 25.7574 30.2426C26.8826 31.3679 28.4087 32 30 32H50C51.5913 32 53.1174 31.3679 54.2426 30.2426C55.3679 29.1174 56 27.5913 56 26V12H64V76H50V60C50 59.4696 49.7893 58.9609 49.4142 58.5858C49.0391 58.2107 48.5304 58 48 58H32C31.4696 58 30.9609 58.2107 30.5858 58.5858C30.2107 58.9609 30 59.4696 30 60V76H16V12ZM4 32H12V76H4V32Z" fill="#C15837"></path><path d="M33.9999 18H37.9999V22C37.9999 22.5304 38.2107 23.0391 38.5857 23.4142C38.9608 23.7893 39.4695 24 39.9999 24C40.5304 24 41.0391 23.7893 41.4142 23.4142C41.7892 23.0391 41.9999 22.5304 41.9999 22V18H45.9999C46.5304 18 47.0391 17.7893 47.4142 17.4142C47.7892 17.0391 47.9999 16.5304 47.9999 16C47.9999 15.4696 47.7892 14.9609 47.4142 14.5858C47.0391 14.2107 46.5304 14 45.9999 14H41.9999V10C41.9999 9.46957 41.7892 8.96086 41.4142 8.58579C41.0391 8.21071 40.5304 8 39.9999 8C39.4695 8 38.9608 8.21071 38.5857 8.58579C38.2107 8.96086 37.9999 9.46957 37.9999 10V14H33.9999C33.4695 14 32.9608 14.2107 32.5857 14.5858C32.2107 14.9609 31.9999 15.4696 31.9999 16C31.9999 16.5304 32.2107 17.0391 32.5857 17.4142C32.9608 17.7893 33.4695 18 33.9999 18Z" fill="#C15837"></path><path d="M26 42H30C30.5304 42 31.0391 41.7893 31.4142 41.4142C31.7893 41.0391 32 40.5304 32 40C32 39.4696 31.7893 38.9609 31.4142 38.5858C31.0391 38.2107 30.5304 38 30 38H26C25.4696 38 24.9609 38.2107 24.5858 38.5858C24.2107 38.9609 24 39.4696 24 40C24 40.5304 24.2107 41.0391 24.5858 41.4142C24.9609 41.7893 25.4696 42 26 42Z" fill="#C15837"></path><path d="M32 50C32 49.4696 31.7893 48.9609 31.4142 48.5858C31.0391 48.2107 30.5304 48 30 48H26C25.4696 48 24.9609 48.2107 24.5858 48.5858C24.2107 48.9609 24 49.4696 24 50C24 50.5304 24.2107 51.0391 24.5858 51.4142C24.9609 51.7893 25.4696 52 26 52H30C30.5304 52 31.0391 51.7893 31.4142 51.4142C31.7893 51.0391 32 50.5304 32 50Z" fill="#C15837"></path><path d="M38 42H42C42.5304 42 43.0391 41.7893 43.4142 41.4142C43.7893 41.0391 44 40.5304 44 40C44 39.4696 43.7893 38.9609 43.4142 38.5858C43.0391 38.2107 42.5304 38 42 38H38C37.4696 38 36.9609 38.2107 36.5858 38.5858C36.2107 38.9609 36 39.4696 36 40C36 40.5304 36.2107 41.0391 36.5858 41.4142C36.9609 41.7893 37.4696 42 38 42Z" fill="#C15837"></path><path d="M38 52H42C42.5304 52 43.0391 51.7893 43.4142 51.4142C43.7893 51.0391 44 50.5304 44 50C44 49.4696 43.7893 48.9609 43.4142 48.5858C43.0391 48.2107 42.5304 48 42 48H38C37.4696 48 36.9609 48.2107 36.5858 48.5858C36.2107 48.9609 36 49.4696 36 50C36 50.5304 36.2107 51.0391 36.5858 51.4142C36.9609 51.7893 37.4696 52 38 52Z" fill="#C15837"></path><path d="M50 42H54C54.5304 42 55.0391 41.7893 55.4142 41.4142C55.7893 41.0391 56 40.5304 56 40C56 39.4696 55.7893 38.9609 55.4142 38.5858C55.0391 38.2107 54.5304 38 54 38H50C49.4696 38 48.9609 38.2107 48.5858 38.5858C48.2107 38.9609 48 39.4696 48 40C48 40.5304 48.2107 41.0391 48.5858 41.4142C48.9609 41.7893 49.4696 42 50 42Z" fill="#C15837"></path><path d="M50 52H54C54.5304 52 55.0391 51.7893 55.4142 51.4142C55.7893 51.0391 56 50.5304 56 50C56 49.4696 55.7893 48.9609 55.4142 48.5858C55.0391 48.2107 54.5304 48 54 48H50C49.4696 48 48.9609 48.2107 48.5858 48.5858C48.2107 48.9609 48 49.4696 48 50C48 50.5304 48.2107 51.0391 48.5858 51.4142C48.9609 51.7893 49.4696 52 50 52Z" fill="#C15837"></path></svg>